ISO-10303-21;
HEADER;
FILE_DESCRIPTION (( 'STEP AP214' ),
    '1' );
FILE_NAME ('驱动电流传导块.STEP',
    '2026-06-24T01:12:05',
    ( 'luo010121@outlook.com' ),
    ( '' ),
    'SwSTEP 2.0',
    'SolidWorks 2021',
    '' );
FILE_SCHEMA (( 'AUTOMOTIVE_DESIGN' ));
ENDSEC;

DATA;
#1 = ORIENTED_EDGE ( 'NONE', *, *, #160, .T. ) ;
#2 = ORIENTED_EDGE ( 'NONE', *, *, #1039, .F. ) ;
#3 = AXIS2_PLACEMENT_3D ( 'NONE', #699, #221, #409 ) ;
#4 = EDGE_CURVE ( 'NONE', #34, #210, #604, .T. ) ;
#5 = DIRECTION ( 'NONE',  ( 0.000000000000000000, 0.000000000000000000, 1.000000000000000000 ) ) ;
#6 = VERTEX_POINT ( 'NONE', #697 ) ;
#7 = AXIS2_PLACEMENT_3D ( 'NONE', #58, #158, #962 ) ;
#8 = DIRECTION ( 'NONE',  ( -1.000000000000000000, 0.000000000000000000, 0.000000000000000000 ) ) ;
#9 = LINE ( 'NONE', #980, #1198 ) ;
#10 = PRESENTATION_STYLE_ASSIGNMENT (( #603 ) ) ;
#11 = CIRCLE ( 'NONE', #336, 0.5000000000000004441 ) ;
#12 = ORIENTED_EDGE ( 'NONE', *, *, #1039, .T. ) ;
#13 = DIRECTION ( 'NONE',  ( 0.000000000000000000, 0.000000000000000000, 1.000000000000000000 ) ) ;
#14 = EDGE_LOOP ( 'NONE', ( #28, #385 ) ) ;
#15 = CARTESIAN_POINT ( 'NONE',  ( 73.78699999999999193, 69.31799999999998363, 0.000000000000000000 ) ) ;
#16 = LINE ( 'NONE', #986, #1091 ) ;
#17 = CARTESIAN_POINT ( 'NONE',  ( 86.35999999999999943, 71.65199999999998681, 2.200000000000000178 ) ) ;
#18 = DIRECTION ( 'NONE',  ( 0.000000000000000000, 0.000000000000000000, -1.000000000000000000 ) ) ;
#19 = DIRECTION ( 'NONE',  ( 0.000000000000000000, 0.000000000000000000, -1.000000000000000000 ) ) ;
#20 = DIRECTION ( 'NONE',  ( -0.000000000000000000, -0.000000000000000000, -1.000000000000000000 ) ) ;
#21 = LINE ( 'NONE', #292, #1009 ) ;
#22 = CARTESIAN_POINT ( 'NONE',  ( 83.05799999999999272, 71.88199999999999079, 2.099999999999999201 ) ) ;
#23 = EDGE_CURVE ( 'NONE', #1064, #403, #59, .T. ) ;
#24 = ORIENTED_EDGE ( 'NONE', *, *, #322, .T. ) ;
#25 = VERTEX_POINT ( 'NONE', #614 ) ;
#26 = LINE ( 'NONE', #1014, #655 ) ;
#27 = CIRCLE ( 'NONE', #1170, 1.409999999999994591 ) ;
#28 = ORIENTED_EDGE ( 'NONE', *, *, #54, .T. ) ;
#29 = DIRECTION ( 'NONE',  ( 0.000000000000000000, 0.000000000000000000, -1.000000000000000000 ) ) ;
#30 = FILL_AREA_STYLE_COLOUR ( '', #317 ) ;
#31 = VECTOR ( 'NONE', #255, 1000.000000000000000 ) ;
#32 =( GEOMETRIC_REPRESENTATION_CONTEXT ( 3 ) GLOBAL_UNCERTAINTY_ASSIGNED_CONTEXT ( ( #716 ) ) GLOBAL_UNIT_ASSIGNED_CONTEXT ( ( #1220, #710, #565 ) ) REPRESENTATION_CONTEXT ( 'NONE', 'WORKASPACE' ) );
#33 = AXIS2_PLACEMENT_3D ( 'NONE', #808, #737, #1036 ) ;
#34 = VERTEX_POINT ( 'NONE', #118 ) ;
#35 = DIRECTION ( 'NONE',  ( -1.000000000000000000, 0.000000000000000000, 0.000000000000000000 ) ) ;
#36 = ADVANCED_FACE ( 'NONE', ( #514 ), #901, .F. ) ;
#37 = DIRECTION ( 'NONE',  ( -0.5773502691896291728, 0.5773502691896291728, -0.5773502691896190697 ) ) ;
#38 = SURFACE_STYLE_FILL_AREA ( #323 ) ;
#39 = EDGE_CURVE ( 'NONE', #142, #1005, #1001, .T. ) ;
#40 = FACE_OUTER_BOUND ( 'NONE', #437, .T. ) ;
#41 = CARTESIAN_POINT ( 'NONE',  ( 73.78699999999999193, 71.77900000000001057, 2.099999999999999201 ) ) ;
#42 = AXIS2_PLACEMENT_3D ( 'NONE', #768, #1090, #798 ) ;
#43 = ORIENTED_EDGE ( 'NONE', *, *, #1223, .F. ) ;
#44 = VERTEX_POINT ( 'NONE', #283 ) ;
#45 = DIRECTION ( 'NONE',  ( 1.000000000000000000, 0.000000000000000000, 0.000000000000000000 ) ) ;
#46 = CARTESIAN_POINT ( 'NONE',  ( 82.82800000000000296, 82.32300000000000750, 2.200000000000000178 ) ) ;
#47 = DIRECTION ( 'NONE',  ( 1.000000000000000000, 0.000000000000000000, 0.000000000000000000 ) ) ;
#48 = CARTESIAN_POINT ( 'NONE',  ( 77.19199999999997885, 82.42300000000001603, 0.000000000000000000 ) ) ;
#49 = ADVANCED_FACE ( 'NONE', ( #1066 ), #1100, .T. ) ;
#50 = EDGE_LOOP ( 'NONE', ( #190, #838, #953, #245 ) ) ;
#51 = LINE ( 'NONE', #1136, #974 ) ;
#52 = DIRECTION ( 'NONE',  ( -1.000000000000000000, 0.000000000000000000, 0.000000000000000000 ) ) ;
#53 = DIRECTION ( 'NONE',  ( 0.000000000000000000, 0.000000000000000000, -1.000000000000000000 ) ) ;
#54 = EDGE_CURVE ( 'NONE', #6, #44, #942, .T. ) ;
#55 = ORIENTED_EDGE ( 'NONE', *, *, #1021, .F. ) ;
#56 = LINE ( 'NONE', #636, #1217 ) ;
#57 = DIRECTION ( 'NONE',  ( 0.000000000000000000, 0.000000000000000000, 1.000000000000000000 ) ) ;
#58 = CARTESIAN_POINT ( 'NONE',  ( 82.82800000000000296, 82.19300000000001205, 2.200000000000000178 ) ) ;
#59 = CIRCLE ( 'NONE', #754, 0.2299999999999940981 ) ;
#60 = AXIS2_PLACEMENT_3D ( 'NONE', #361, #842, #1054 ) ;
#61 = ORIENTED_EDGE ( 'NONE', *, *, #1250, .T. ) ;
#62 = EDGE_CURVE ( 'NONE', #897, #150, #384, .T. ) ;
#63 = VECTOR ( 'NONE', #329, 1000.000000000000000 ) ;
#64 = DIRECTION ( 'NONE',  ( 0.000000000000000000, 0.000000000000000000, -1.000000000000000000 ) ) ;
#65 = FACE_OUTER_BOUND ( 'NONE', #680, .T. ) ;
#66 = ORIENTED_EDGE ( 'NONE', *, *, #314, .T. ) ;
#67 = EDGE_CURVE ( 'NONE', #177, #764, #21, .T. ) ;
#68 = CARTESIAN_POINT ( 'NONE',  ( 75.56499999999999773, 70.23100000000000875, 2.099999999999995204 ) ) ;
#69 = DIRECTION ( 'NONE',  ( -0.000000000000000000, -1.000000000000000000, -0.000000000000000000 ) ) ;
#70 = ORIENTED_EDGE ( 'NONE', *, *, #936, .F. ) ;
#71 = ORIENTED_EDGE ( 'NONE', *, *, #85, .T. ) ;
#72 = CARTESIAN_POINT ( 'NONE',  ( 0.000000000000000000, 0.000000000000000000, 0.000000000000000000 ) ) ;
#73 = EDGE_CURVE ( 'NONE', #1191, #869, #1194, .T. ) ;
#74 = DIRECTION ( 'NONE',  ( 0.000000000000000000, 0.000000000000000000, -1.000000000000000000 ) ) ;
#75 = ADVANCED_FACE ( 'NONE', ( #874 ), #1187, .F. ) ;
#76 = ORIENTED_EDGE ( 'NONE', *, *, #219, .F. ) ;
#77 = CONICAL_SURFACE ( 'NONE', #960, 0.5000000000000004441, 0.7853981633974439491 ) ;
#78 = ORIENTED_EDGE ( 'NONE', *, *, #227, .T. ) ;
#79 = PLANE ( 'NONE',  #1206 ) ;
#80 = AXIS2_PLACEMENT_3D ( 'NONE', #633, #147, #542 ) ;
#81 = AXIS2_PLACEMENT_3D ( 'NONE', #410, #516, #771 ) ;
#82 = FACE_OUTER_BOUND ( 'NONE', #889, .T. ) ;
#83 = ORIENTED_EDGE ( 'NONE', *, *, #613, .T. ) ;
#84 = ORIENTED_EDGE ( 'NONE', *, *, #576, .F. ) ;
#85 = EDGE_CURVE ( 'NONE', #198, #773, #371, .T. ) ;
#86 = ORIENTED_EDGE ( 'NONE', *, *, #936, .T. ) ;
#87 = ORIENTED_EDGE ( 'NONE', *, *, #1190, .F. ) ;
#88 = CYLINDRICAL_SURFACE ( 'NONE', #224, 0.5000000000000004441 ) ;
#89 = DIRECTION ( 'NONE',  ( 0.7071067811865444641, 0.000000000000000000, 0.7071067811865505703 ) ) ;
#90 = ORIENTED_EDGE ( 'NONE', *, *, #95, .T. ) ;
#91 = CARTESIAN_POINT ( 'NONE',  ( 83.05799999999999272, 82.42300000000001603, 0.000000000000000000 ) ) ;
#92 = CARTESIAN_POINT ( 'NONE',  ( 76.96199999999998909, 82.19300000000001205, 0.000000000000000000 ) ) ;
#93 = CARTESIAN_POINT ( 'NONE',  ( 77.19199999999997885, 82.19300000000001205, 2.099999999999999201 ) ) ;
#94 = ORIENTED_EDGE ( 'NONE', *, *, #4, .F. ) ;
#95 = EDGE_CURVE ( 'NONE', #1073, #1151, #802, .T. ) ;
#96 = AXIS2_PLACEMENT_3D ( 'NONE', #840, #64, #534 ) ;
#97 = VERTEX_POINT ( 'NONE', #770 ) ;
#98 = ORIENTED_EDGE ( 'NONE', *, *, #448, .F. ) ;
#99 = DIRECTION ( 'NONE',  ( -0.000000000000000000, -0.000000000000000000, 1.000000000000000000 ) ) ;
#100 = ORIENTED_EDGE ( 'NONE', *, *, #748, .T. ) ;
#101 = CARTESIAN_POINT ( 'NONE',  ( 86.13000000000000966, 69.31799999999998363, 2.200000000000000178 ) ) ;
#102 = LINE ( 'NONE', #497, #250 ) ;
#103 = DIRECTION ( 'NONE',  ( 0.000000000000000000, 0.000000000000000000, -1.000000000000000000 ) ) ;
#104 = VERTEX_POINT ( 'NONE', #404 ) ;
#105 = ORIENTED_EDGE ( 'NONE', *, *, #613, .F. ) ;
#106 = ORIENTED_EDGE ( 'NONE', *, *, #853, .T. ) ;
#107 = EDGE_CURVE ( 'NONE', #104, #521, #16, .T. ) ;
#108 = CARTESIAN_POINT ( 'NONE',  ( 86.13000000000000966, 69.08799999999999386, 2.099999999999999201 ) ) ;
#109 = ORIENTED_EDGE ( 'NONE', *, *, #623, .F. ) ;
#110 = VECTOR ( 'NONE', #1059, 1000.000000000000000 ) ;
#111 = CARTESIAN_POINT ( 'NONE',  ( 73.78699999999999193, 69.31799999999998363, 2.099999999999999201 ) ) ;
#112 = LINE ( 'NONE', #126, #1031 ) ;
#113 = DIRECTION ( 'NONE',  ( 1.000000000000000000, 0.000000000000000000, 0.000000000000000000 ) ) ;
#114 = VECTOR ( 'NONE', #498, 1000.000000000000000 ) ;
#115 = EDGE_LOOP ( 'NONE', ( #298, #287 ) ) ;
#116 = DIRECTION ( 'NONE',  ( 0.000000000000000000, 1.000000000000000000, 0.000000000000000000 ) ) ;
#117 = EDGE_CURVE ( 'NONE', #825, #205, #312, .T. ) ;
#118 = CARTESIAN_POINT ( 'NONE',  ( 77.19199999999997885, 82.32300000000000750, 2.200000000000000178 ) ) ;
#119 = DIRECTION ( 'NONE',  ( 0.000000000000000000, 0.000000000000000000, -1.000000000000000000 ) ) ;
#120 = LINE ( 'NONE', #216, #1013 ) ;
#121 = AXIS2_PLACEMENT_3D ( 'NONE', #1042, #1129, #444 ) ;
#122 = ORIENTED_EDGE ( 'NONE', *, *, #702, .T. ) ;
#123 = ORIENTED_EDGE ( 'NONE', *, *, #664, .F. ) ;
#124 = EDGE_CURVE ( 'NONE', #1201, #976, #856, .T. ) ;
#125 = DIRECTION ( 'NONE',  ( 0.000000000000000000, 0.000000000000000000, -1.000000000000000000 ) ) ;
#126 = CARTESIAN_POINT ( 'NONE',  ( 76.96199999999998909, 82.42300000000001603, 2.099999999999999201 ) ) ;
#127 = LINE ( 'NONE', #595, #861 ) ;
#128 = ADVANCED_FACE ( 'NONE', ( #199 ), #472, .T. ) ;
#129 = EDGE_LOOP ( 'NONE', ( #202, #340, #348, #263 ) ) ;
#130 = DIRECTION ( 'NONE',  ( -0.000000000000000000, -0.000000000000000000, -1.000000000000000000 ) ) ;
#131 = CARTESIAN_POINT ( 'NONE',  ( 75.56499999999999773, 70.23100000000000875, 2.099999999999995204 ) ) ;
#132 = AXIS2_PLACEMENT_3D ( 'NONE', #131, #529, #916 ) ;
#133 = AXIS2_PLACEMENT_3D ( 'NONE', #513, #197, #591 ) ;
#134 = VECTOR ( 'NONE', #418, 1000.000000000000114 ) ;
#135 = EDGE_CURVE ( 'NONE', #1057, #689, #634, .T. ) ;
#136 =( NAMED_UNIT ( * ) PLANE_ANGLE_UNIT ( ) SI_UNIT ( $, .RADIAN. ) );
#137 = ORIENTED_EDGE ( 'NONE', *, *, #117, .T. ) ;
#138 = CARTESIAN_POINT ( 'NONE',  ( 86.13000000000000966, 69.31799999999998363, 2.099999999999999201 ) ) ;
#139 = ADVANCED_FACE ( 'NONE', ( #692 ), #77, .F. ) ;
#140 = CARTESIAN_POINT ( 'NONE',  ( 83.05799999999999272, 82.42300000000001603, 2.200000000000000178 ) ) ;
#141 = DIRECTION ( 'NONE',  ( 0.000000000000000000, 0.000000000000000000, -1.000000000000000000 ) ) ;
#142 = VERTEX_POINT ( 'NONE', #111 ) ;
#143 = VERTEX_POINT ( 'NONE', #508 ) ;
#144 = DIRECTION ( 'NONE',  ( 0.000000000000000000, -1.000000000000000000, 0.000000000000000000 ) ) ;
#145 = EDGE_CURVE ( 'NONE', #97, #1168, #27, .T. ) ;
#146 = CARTESIAN_POINT ( 'NONE',  ( 84.45499999999999829, 70.10399999999999920, 2.099999999999995204 ) ) ;
#147 = DIRECTION ( 'NONE',  ( -0.000000000000000000, -0.000000000000000000, -1.000000000000000000 ) ) ;
#148 = AXIS2_PLACEMENT_3D ( 'NONE', #559, #946, #1038 ) ;
#149 = CIRCLE ( 'NONE', #640, 0.6000000000000033085 ) ;
#150 = VERTEX_POINT ( 'NONE', #1221 ) ;
#151 = CARTESIAN_POINT ( 'NONE',  ( 82.82800000000000296, 82.32300000000000750, 2.200000000000000178 ) ) ;
#152 = LINE ( 'NONE', #1119, #920 ) ;
#153 = CARTESIAN_POINT ( 'NONE',  ( 75.06499999999999773, 70.23100000000000875, 2.099999999999995204 ) ) ;
#154 = VECTOR ( 'NONE', #45, 1000.000000000000000 ) ;
#155 = ORIENTED_EDGE ( 'NONE', *, *, #1104, .F. ) ;
#156 = LINE ( 'NONE', #551, #991 ) ;
#157 = DIRECTION ( 'NONE',  ( 0.000000000000000000, 0.000000000000000000, 1.000000000000000000 ) ) ;
#158 = DIRECTION ( 'NONE',  ( 0.000000000000000000, 0.000000000000000000, -1.000000000000000000 ) ) ;
#159 = AXIS2_PLACEMENT_3D ( 'NONE', #1125, #451, #52 ) ;
#160 = EDGE_CURVE ( 'NONE', #913, #1245, #1032, .T. ) ;
#161 = ORIENTED_EDGE ( 'NONE', *, *, #62, .T. ) ;
#162 = DIRECTION ( 'NONE',  ( 1.000000000000000000, 0.000000000000000000, 0.000000000000000000 ) ) ;
#163 = CARTESIAN_POINT ( 'NONE',  ( 0.000000000000000000, 71.78199999999998226, 2.200000000000000178 ) ) ;
#164 = CARTESIAN_POINT ( 'NONE',  ( 80.00000001999998744, 80.00000002000000165, -1.549999999999998268 ) ) ;
#165 = VECTOR ( 'NONE', #1099, 1000.000000000000000 ) ;
#166 = ORIENTED_EDGE ( 'NONE', *, *, #963, .F. ) ;
#167 = AXIS2_PLACEMENT_3D ( 'NONE', #690, #1082, #204 ) ;
#168 = VECTOR ( 'NONE', #392, 1000.000000000000000 ) ;
#169 = CARTESIAN_POINT ( 'NONE',  ( 74.01699999999998170, 69.31799999999998363, 2.200000000000000178 ) ) ;
#170 = CARTESIAN_POINT ( 'NONE',  ( 86.26000000000000512, 69.31799999999998363, 2.200000000000000178 ) ) ;
#171 = EDGE_CURVE ( 'NONE', #780, #387, #632, .T. ) ;
#172 = ORIENTED_EDGE ( 'NONE', *, *, #408, .T. ) ;
#173 = CIRCLE ( 'NONE', #709, 0.1299999999999912337 ) ;
#174 = DIRECTION ( 'NONE',  ( 0.000000000000000000, 0.000000000000000000, -1.000000000000000000 ) ) ;
#175 = DIRECTION ( 'NONE',  ( -0.000000000000000000, 0.000000000000000000, -1.000000000000000000 ) ) ;
#176 = ORIENTED_EDGE ( 'NONE', *, *, #429, .T. ) ;
#177 = VERTEX_POINT ( 'NONE', #547 ) ;
#178 = FACE_BOUND ( 'NONE', #262, .T. ) ;
#179 = CARTESIAN_POINT ( 'NONE',  ( 73.78699999999999193, 71.77900000000001057, 2.099999999999999201 ) ) ;
#180 = EDGE_CURVE ( 'NONE', #662, #780, #286, .T. ) ;
#181 = ORIENTED_EDGE ( 'NONE', *, *, #868, .F. ) ;
#182 = ORIENTED_EDGE ( 'NONE', *, *, #684, .F. ) ;
#183 = AXIS2_PLACEMENT_3D ( 'NONE', #308, #1092, #301 ) ;
#184 = ORIENTED_EDGE ( 'NONE', *, *, #695, .T. ) ;
#185 = CIRCLE ( 'NONE', #148, 0.2299999999999940981 ) ;
#186 = DIRECTION ( 'NONE',  ( 0.000000000000000000, 0.000000000000000000, 1.000000000000000000 ) ) ;
#187 = AXIS2_PLACEMENT_3D ( 'NONE', #1006, #130, #344 ) ;
#188 = AXIS2_PLACEMENT_3D ( 'NONE', #686, #1174, #319 ) ;
#189 = CARTESIAN_POINT ( 'NONE',  ( 86.35999999999999943, 71.65199999999998681, 2.099999999999999201 ) ) ;
#190 = ORIENTED_EDGE ( 'NONE', *, *, #171, .F. ) ;
#191 = EDGE_CURVE ( 'NONE', #773, #198, #517, .T. ) ;
#192 = CARTESIAN_POINT ( 'NONE',  ( 74.01699999999998170, 71.77900000000001057, 2.200000000000000178 ) ) ;
#193 = CARTESIAN_POINT ( 'NONE',  ( 77.19199999999997885, 82.32300000000000750, 2.200000000000000178 ) ) ;
#194 = CARTESIAN_POINT ( 'NONE',  ( 86.13000000000000966, 69.08799999999999386, 0.000000000000000000 ) ) ;
#195 = EDGE_LOOP ( 'NONE', ( #239, #1258, #563, #1126 ) ) ;
#196 = EDGE_LOOP ( 'NONE', ( #589, #1016, #1097, #1154 ) ) ;
#197 = DIRECTION ( 'NONE',  ( 0.000000000000000000, 0.7071067811865414665, -0.7071067811865536790 ) ) ;
#198 = VERTEX_POINT ( 'NONE', #363 ) ;
#199 = FACE_OUTER_BOUND ( 'NONE', #129, .T. ) ;
#200 = DIRECTION ( 'NONE',  ( -0.000000000000000000, -0.000000000000000000, 1.000000000000000000 ) ) ;
#201 = EDGE_CURVE ( 'NONE', #825, #605, #1137, .T. ) ;
#202 = ORIENTED_EDGE ( 'NONE', *, *, #233, .T. ) ;
#203 = ORIENTED_EDGE ( 'NONE', *, *, #180, .F. ) ;
#204 = DIRECTION ( 'NONE',  ( -1.000000000000000000, 0.000000000000000000, 0.000000000000000000 ) ) ;
#205 = VERTEX_POINT ( 'NONE', #345 ) ;
#206 = DIRECTION ( 'NONE',  ( 1.000000000000000000, 0.000000000000000000, 0.000000000000000000 ) ) ;
#207 = DIRECTION ( 'NONE',  ( -1.000000000000000000, 0.000000000000000000, 0.000000000000000000 ) ) ;
#208 = LINE ( 'NONE', #779, #1051 ) ;
#209 = VECTOR ( 'NONE', #979, 1000.000000000000000 ) ;
#210 = VERTEX_POINT ( 'NONE', #738 ) ;
#211 = EDGE_CURVE ( 'NONE', #495, #1168, #649, .T. ) ;
#212 = FACE_OUTER_BOUND ( 'NONE', #195, .T. ) ;
#213 = CIRCLE ( 'NONE', #928, 0.5000000000000004441 ) ;
#214 = CARTESIAN_POINT ( 'NONE',  ( 84.45499999999999829, 70.10399999999999920, 2.099999999999995204 ) ) ;
#215 = DIRECTION ( 'NONE',  ( 1.000000000000000000, 0.000000000000000000, 0.000000000000000000 ) ) ;
#216 = CARTESIAN_POINT ( 'NONE',  ( 73.78699999999999193, 71.77900000000001057, 2.200000000000000178 ) ) ;
#217 = DIRECTION ( 'NONE',  ( 0.000000000000000000, 0.000000000000000000, -1.000000000000000000 ) ) ;
#218 = ORIENTED_EDGE ( 'NONE', *, *, #1250, .F. ) ;
#219 = EDGE_CURVE ( 'NONE', #736, #913, #541, .T. ) ;
#220 = CARTESIAN_POINT ( 'NONE',  ( 77.19199999999997885, 82.42300000000001603, 2.200000000000000178 ) ) ;
#221 = DIRECTION ( 'NONE',  ( 0.000000000000000000, 0.000000000000000000, 1.000000000000000000 ) ) ;
#222 = DIRECTION ( 'NONE',  ( 1.000000000000000000, 0.000000000000000000, 0.000000000000000000 ) ) ;
#223 = CARTESIAN_POINT ( 'NONE',  ( 73.78699999999999193, 69.31799999999998363, 2.200000000000000178 ) ) ;
#224 = AXIS2_PLACEMENT_3D ( 'NONE', #663, #1143, #767 ) ;
#225 = CONICAL_SURFACE ( 'NONE', #1106, 0.1299999999999912337, 0.7853981633974865817 ) ;
#226 = ORIENTED_EDGE ( 'NONE', *, *, #1230, .F. ) ;
#227 = EDGE_CURVE ( 'NONE', #950, #913, #1185, .T. ) ;
#228 = DIRECTION ( 'NONE',  ( -1.000000000000000000, 0.000000000000000000, 0.000000000000000000 ) ) ;
#229 = DIRECTION ( 'NONE',  ( 0.000000000000000000, -0.000000000000000000, 1.000000000000000000 ) ) ;
#230 = AXIS2_PLACEMENT_3D ( 'NONE', #192, #391, #1262 ) ;
#231 = FACE_OUTER_BOUND ( 'NONE', #569, .T. ) ;
#232 = VECTOR ( 'NONE', #69, 1000.000000000000000 ) ;
#233 = EDGE_CURVE ( 'NONE', #886, #976, #152, .T. ) ;
#234 = AXIS2_PLACEMENT_3D ( 'NONE', #247, #725, #1213 ) ;
#235 = VECTOR ( 'NONE', #200, 1000.000000000000000 ) ;
#236 = DIRECTION ( 'NONE',  ( -0.000000000000000000, 1.000000000000000000, -0.000000000000000000 ) ) ;
#237 = CARTESIAN_POINT ( 'NONE',  ( 77.19199999999997885, 82.19300000000001205, 2.200000000000000178 ) ) ;
#238 = DIRECTION ( 'NONE',  ( 1.000000000000000000, 0.000000000000000000, 0.000000000000000000 ) ) ;
#239 = ORIENTED_EDGE ( 'NONE', *, *, #1045, .T. ) ;
#240 = ADVANCED_FACE ( 'NONE', ( #40 ), #242, .F. ) ;
#241 = DIRECTION ( 'NONE',  ( -1.000000000000000000, 0.000000000000000000, 0.000000000000000000 ) ) ;
#242 = CYLINDRICAL_SURFACE ( 'NONE', #96, 0.5000000000000004441 ) ;
#243 = CARTESIAN_POINT ( 'NONE',  ( 86.13000000000000966, 71.88199999999999079, 2.099999999999999201 ) ) ;
#244 = EDGE_CURVE ( 'NONE', #210, #104, #1235, .T. ) ;
#245 = ORIENTED_EDGE ( 'NONE', *, *, #1180, .T. ) ;
#246 = PLANE ( 'NONE',  #896 ) ;
#247 = CARTESIAN_POINT ( 'NONE',  ( 84.45499999999999829, 70.10399999999999920, 0.000000000000000000 ) ) ;
#248 = DIRECTION ( 'NONE',  ( -0.000000000000000000, -0.000000000000000000, -1.000000000000000000 ) ) ;
#249 = DIRECTION ( 'NONE',  ( -0.000000000000000000, 0.000000000000000000, -1.000000000000000000 ) ) ;
#250 = VECTOR ( 'NONE', #309, 1000.000000000000000 ) ;
#251 = ORIENTED_EDGE ( 'NONE', *, *, #314, .F. ) ;
#252 = CARTESIAN_POINT ( 'NONE',  ( 77.06199999999999761, 0.000000000000000000, 2.200000000000000178 ) ) ;
#253 = APPLICATION_PROTOCOL_DEFINITION ( 'draft international standard', 'automotive_design', 1998, #455 ) ;
#254 = DIRECTION ( 'NONE',  ( 0.000000000000000000, 0.000000000000000000, -1.000000000000000000 ) ) ;
#255 = DIRECTION ( 'NONE',  ( 0.000000000000000000, 0.7071067811865536790, 0.7071067811865414665 ) ) ;
#256 = EDGE_CURVE ( 'NONE', #495, #143, #552, .T. ) ;
#257 = EDGE_LOOP ( 'NONE', ( #2, #983, #592, #568 ) ) ;
#258 = CARTESIAN_POINT ( 'NONE',  ( 80.00000001999998744, 80.00000002000000165, -1.649999999999999911 ) ) ;
#259 = DIRECTION ( 'NONE',  ( 0.000000000000000000, 0.000000000000000000, 1.000000000000000000 ) ) ;
#260 = DIRECTION ( 'NONE',  ( 0.000000000000000000, 0.000000000000000000, -1.000000000000000000 ) ) ;
#261 = ADVANCED_FACE ( 'NONE', ( #1115 ), #276, .T. ) ;
#262 = EDGE_LOOP ( 'NONE', ( #480, #866 ) ) ;
#263 = ORIENTED_EDGE ( 'NONE', *, *, #787, .F. ) ;
#264 = LINE ( 'NONE', #951, #1241 ) ;
#265 = CARTESIAN_POINT ( 'NONE',  ( 86.13000000000000966, 71.78199999999998226, 2.200000000000000178 ) ) ;
#266 = ADVANCED_FACE ( 'NONE', ( #440 ), #820, .F. ) ;
#267 = AXIS2_PLACEMENT_3D ( 'NONE', #1222, #346, #238 ) ;
#268 = ORIENTED_EDGE ( 'NONE', *, *, #1223, .T. ) ;
#269 = DIRECTION ( 'NONE',  ( 0.000000000000000000, 0.000000000000000000, -1.000000000000000000 ) ) ;
#270 = CARTESIAN_POINT ( 'NONE',  ( 74.01699999999998170, 69.08799999999999386, 2.200000000000000178 ) ) ;
#271 = ORIENTED_EDGE ( 'NONE', *, *, #672, .F. ) ;
#272 = EDGE_CURVE ( 'NONE', #585, #278, #553, .T. ) ;
#273 = PLANE ( 'NONE',  #1161 ) ;
#274 = DIRECTION ( 'NONE',  ( -1.000000000000000000, 0.000000000000000000, 0.000000000000000000 ) ) ;
#275 = EDGE_LOOP ( 'NONE', ( #744, #611, #990, #683 ) ) ;
#276 = CONICAL_SURFACE ( 'NONE', #665, 0.1299999999999912337, 0.7853981633974865817 ) ;
#277 = EDGE_LOOP ( 'NONE', ( #673, #397, #957, #1088 ) ) ;
#278 = VERTEX_POINT ( 'NONE', #726 ) ;
#279 = ADVANCED_FACE ( 'NONE', ( #1024 ), #1002, .F. ) ;
#280 = DIRECTION ( 'NONE',  ( -1.000000000000000000, 0.000000000000000000, 0.000000000000000000 ) ) ;
#281 = PLANE ( 'NONE',  #474 ) ;
#282 = ORIENTED_EDGE ( 'NONE', *, *, #524, .F. ) ;
#283 = CARTESIAN_POINT ( 'NONE',  ( 83.85500000000000398, 70.10399999999999920, 2.200000000000000178 ) ) ;
#284 = CARTESIAN_POINT ( 'NONE',  ( 86.13000000000000966, 71.65199999999998681, 2.200000000000000178 ) ) ;
#285 = EDGE_LOOP ( 'NONE', ( #1077, #581, #1261, #1218 ) ) ;
#286 = CIRCLE ( 'NONE', #674, 0.5000000000000004441 ) ;
#287 = ORIENTED_EDGE ( 'NONE', *, *, #760, .F. ) ;
#288 = AXIS2_PLACEMENT_3D ( 'NONE', #164, #941, #751 ) ;
#289 = CONICAL_SURFACE ( 'NONE', #782, 1.310000000000005604, 0.7853981633974081999 ) ;
#290 = LINE ( 'NONE', #189, #316 ) ;
#291 = EDGE_LOOP ( 'NONE', ( #414, #1052, #727, #1035 ) ) ;
#292 = CARTESIAN_POINT ( 'NONE',  ( 76.96199999999998909, 82.42300000000001603, 0.000000000000000000 ) ) ;
#293 = ADVANCED_FACE ( 'NONE', ( #828 ), #386, .T. ) ;
#294 = LINE ( 'NONE', #17, #235 ) ;
#295 = DIRECTION ( 'NONE',  ( 0.000000000000000000, -1.000000000000000000, 0.000000000000000000 ) ) ;
#296 = EDGE_LOOP ( 'NONE', ( #964, #84, #520, #998 ) ) ;
#297 = ORIENTED_EDGE ( 'NONE', *, *, #661, .F. ) ;
#298 = ORIENTED_EDGE ( 'NONE', *, *, #145, .F. ) ;
#299 = FACE_OUTER_BOUND ( 'NONE', #394, .T. ) ;
#300 = VERTEX_POINT ( 'NONE', #755 ) ;
#301 = DIRECTION ( 'NONE',  ( -1.000000000000000000, 0.000000000000000000, 0.000000000000000000 ) ) ;
#302 = DIRECTION ( 'NONE',  ( -0.000000000000000000, -0.000000000000000000, -1.000000000000000000 ) ) ;
#303 = CARTESIAN_POINT ( 'NONE',  ( 80.00000001999998744, 80.00000002000000165, -1.649999999999999911 ) ) ;
#304 = ADVANCED_FACE ( 'NONE', ( #1062 ), #273, .F. ) ;
#305 = ORIENTED_EDGE ( 'NONE', *, *, #564, .F. ) ;
#306 = VERTEX_POINT ( 'NONE', #1053 ) ;
#307 = LINE ( 'NONE', #1072, #819 ) ;
#308 = CARTESIAN_POINT ( 'NONE',  ( 86.13000000000000966, 69.31799999999998363, 0.000000000000000000 ) ) ;
#309 = DIRECTION ( 'NONE',  ( -1.000000000000000000, -0.000000000000000000, -0.000000000000000000 ) ) ;
#310 = DIRECTION ( 'NONE',  ( -1.000000000000000000, 0.000000000000000000, 0.000000000000000000 ) ) ;
#311 = ADVANCED_FACE ( 'NONE', ( #566 ), #225, .T. ) ;
#312 = CIRCLE ( 'NONE', #3, 0.1299999999999912337 ) ;
#313 = ORIENTED_EDGE ( 'NONE', *, *, #358, .T. ) ;
#314 = EDGE_CURVE ( 'NONE', #210, #443, #264, .T. ) ;
#315 = DIRECTION ( 'NONE',  ( -0.7071067811865414665, 0.000000000000000000, -0.7071067811865536790 ) ) ;
#316 = VECTOR ( 'NONE', #704, 1000.000000000000000 ) ;
#318 = DIRECTION ( 'NONE',  ( -0.000000000000000000, -0.000000000000000000, -1.000000000000000000 ) ) ;
#317 = COLOUR_RGB ( '',0.5372549019607842924, 0.3490196078431372362, 0.3372549019607843368 ) ;
#319 = DIRECTION ( 'NONE',  ( -1.000000000000000000, 0.000000000000000000, 0.000000000000000000 ) ) ;
#320 = DIRECTION ( 'NONE',  ( -1.000000000000000000, 0.000000000000000000, 0.000000000000000000 ) ) ;
#321 = ORIENTED_EDGE ( 'NONE', *, *, #388, .T. ) ;
#322 = EDGE_CURVE ( 'NONE', #573, #736, #864, .T. ) ;
#323 = FILL_AREA_STYLE ('',( #1200 ) ) ;
#324 = EDGE_LOOP ( 'NONE', ( #555, #1027, #518, #1080 ) ) ;
#325 = CARTESIAN_POINT ( 'NONE',  ( 83.05799999999999272, 71.88199999999999079, 2.200000000000000178 ) ) ;
#326 = CARTESIAN_POINT ( 'NONE',  ( 82.80400000000000205, 69.08799999999999386, 2.200000000000000178 ) ) ;
#327 = VECTOR ( 'NONE', #19, 1000.000000000000000 ) ;
#328 = AXIS2_PLACEMENT_3D ( 'NONE', #146, #929, #47 ) ;
#329 = DIRECTION ( 'NONE',  ( 0.000000000000000000, 0.7071067811865536790, -0.7071067811865414665 ) ) ;
#330 = EDGE_CURVE ( 'NONE', #733, #1242, #871, .T. ) ;
#331 = DIRECTION ( 'NONE',  ( -0.000000000000000000, -0.000000000000000000, 1.000000000000000000 ) ) ;
#332 = LINE ( 'NONE', #531, #965 ) ;
#333 = VECTOR ( 'NONE', #331, 1000.000000000000000 ) ;
#334 = ADVANCED_FACE ( 'NONE', ( #1156 ), #79, .F. ) ;
#335 = AXIS2_PLACEMENT_3D ( 'NONE', #698, #478, #584 ) ;
#336 = AXIS2_PLACEMENT_3D ( 'NONE', #1102, #1196, #320 ) ;
#337 = CARTESIAN_POINT ( 'NONE',  ( 76.06499999999999773, 70.23100000000000875, 2.099999999999995204 ) ) ;
#338 = DIRECTION ( 'NONE',  ( -1.000000000000000000, -0.000000000000000000, -0.000000000000000000 ) ) ;
#339 = FACE_OUTER_BOUND ( 'NONE', #701, .T. ) ;
#340 = ORIENTED_EDGE ( 'NONE', *, *, #124, .F. ) ;
#341 = ADVANCED_FACE ( 'NONE', ( #762, #178, #954, #477 ), #1252, .T. ) ;
#342 = EDGE_LOOP ( 'NONE', ( #906, #1079, #730, #161 ) ) ;
#343 = PLANE ( 'NONE',  #1055 ) ;
#344 = DIRECTION ( 'NONE',  ( -1.000000000000000000, 0.000000000000000000, 0.000000000000000000 ) ) ;
#345 = CARTESIAN_POINT ( 'NONE',  ( 73.88700000000000045, 71.77900000000001057, 2.200000000000000178 ) ) ;
#346 = DIRECTION ( 'NONE',  ( 0.000000000000000000, 0.000000000000000000, 1.000000000000000000 ) ) ;
#347 = EDGE_CURVE ( 'NONE', #886, #1057, #852, .T. ) ;
#348 = ORIENTED_EDGE ( 'NONE', *, *, #1045, .F. ) ;
#349 = ADVANCED_FACE ( 'NONE', ( #483 ), #88, .F. ) ;
#350 = FACE_OUTER_BOUND ( 'NONE', #275, .T. ) ;
#351 = CARTESIAN_POINT ( 'NONE',  ( 84.45499999999999829, 70.10399999999999920, 2.099999999999995204 ) ) ;
#352 = VECTOR ( 'NONE', #882, 1000.000000000000000 ) ;
#353 = DIRECTION ( 'NONE',  ( 1.000000000000000000, 0.000000000000000000, -0.000000000000000000 ) ) ;
#354 = VECTOR ( 'NONE', #1124, 1000.000000000000000 ) ;
#355 = CIRCLE ( 'NONE', #1234, 0.2299999999999940981 ) ;
#356 = ORIENTED_EDGE ( 'NONE', *, *, #244, .F. ) ;
#357 = LINE ( 'NONE', #939, #154 ) ;
#358 = EDGE_CURVE ( 'NONE', #306, #449, #173, .T. ) ;
#359 = CARTESIAN_POINT ( 'NONE',  ( 77.06199999999999761, 82.19300000000001205, 2.200000000000000178 ) ) ;
#360 = UNCERTAINTY_MEASURE_WITH_UNIT (LENGTH_MEASURE( 1.000000000000000082E-05 ), #707, 'distance_accuracy_value', 'NONE');
#361 = CARTESIAN_POINT ( 'NONE',  ( 84.45499999999999829, 70.10399999999999920, 2.099999999999995204 ) ) ;
#362 = ORIENTED_EDGE ( 'NONE', *, *, #759, .T. ) ;
#363 = CARTESIAN_POINT ( 'NONE',  ( 76.16499999999999204, 70.23100000000000875, 2.200000000000000178 ) ) ;
#364 = EDGE_CURVE ( 'NONE', #736, #372, #1243, .T. ) ;
#365 = CARTESIAN_POINT ( 'NONE',  ( 76.96199999999998909, 82.42300000000001603, 2.200000000000000178 ) ) ;
#366 = ORIENTED_EDGE ( 'NONE', *, *, #1249, .T. ) ;
#367 = VECTOR ( 'NONE', #338, 1000.000000000000000 ) ;
#368 = ORIENTED_EDGE ( 'NONE', *, *, #1259, .F. ) ;
#369 = CARTESIAN_POINT ( 'NONE',  ( 86.13000000000000966, 71.88199999999999079, 2.200000000000000178 ) ) ;
#370 = CYLINDRICAL_SURFACE ( 'NONE', #912, 0.2299999999999940981 ) ;
#371 = CIRCLE ( 'NONE', #579, 0.6000000000000033085 ) ;
#372 = VERTEX_POINT ( 'NONE', #826 ) ;
#373 = ADVANCED_FACE ( 'NONE', ( #927 ), #246, .F. ) ;
#374 = AXIS2_PLACEMENT_3D ( 'NONE', #1127, #249, #823 ) ;
#375 = ORIENTED_EDGE ( 'NONE', *, *, #1010, .F. ) ;
#376 = SHAPE_DEFINITION_REPRESENTATION ( #484, #1141 ) ;
#377 = CARTESIAN_POINT ( 'NONE',  ( 74.01699999999998170, 71.77900000000001057, 2.200000000000000178 ) ) ;
#378 = LINE ( 'NONE', #763, #110 ) ;
#379 = EDGE_CURVE ( 'NONE', #1073, #689, #357, .T. ) ;
#380 = ORIENTED_EDGE ( 'NONE', *, *, #62, .F. ) ;
#381 = CARTESIAN_POINT ( 'NONE',  ( 86.35999999999999943, 69.31799999999998363, 2.200000000000000178 ) ) ;
#382 = DIRECTION ( 'NONE',  ( 0.7071067811865192621, 0.000000000000000000, 0.7071067811865759944 ) ) ;
#383 = ORIENTED_EDGE ( 'NONE', *, *, #364, .T. ) ;
#384 = LINE ( 'NONE', #91, #925 ) ;
#385 = ORIENTED_EDGE ( 'NONE', *, *, #556, .T. ) ;
#386 = CONICAL_SURFACE ( 'NONE', #445, 0.1299999999999912337, 0.7853981633974865817 ) ;
#387 = VERTEX_POINT ( 'NONE', #1232 ) ;
#388 = EDGE_CURVE ( 'NONE', #1064, #177, #51, .T. ) ;
#389 = CARTESIAN_POINT ( 'NONE',  ( 73.78699999999999193, 72.00900000000000034, 0.000000000000000000 ) ) ;
#390 = ORIENTED_EDGE ( 'NONE', *, *, #1139, .F. ) ;
#391 = DIRECTION ( 'NONE',  ( 0.000000000000000000, 0.000000000000000000, -1.000000000000000000 ) ) ;
#392 = DIRECTION ( 'NONE',  ( 0.000000000000000000, 1.000000000000000000, 0.000000000000000000 ) ) ;
#393 = CARTESIAN_POINT ( 'NONE',  ( 59.03066666666638440, 47.85466666666637536, 26.12733333333319052 ) ) ;
#394 = EDGE_LOOP ( 'NONE', ( #519, #599 ) ) ;
#395 = AXIS2_PLACEMENT_3D ( 'NONE', #593, #777, #8 ) ;
#396 = EDGE_LOOP ( 'NONE', ( #106, #366, #12, #1145 ) ) ;
#397 = ORIENTED_EDGE ( 'NONE', *, *, #695, .F. ) ;
#398 = ORIENTED_EDGE ( 'NONE', *, *, #956, .F. ) ;
#399 = VECTOR ( 'NONE', #18, 1000.000000000000000 ) ;
#400 = CIRCLE ( 'NONE', #234, 0.5000000000000004441 ) ;
#401 =( GEOMETRIC_REPRESENTATION_CONTEXT ( 3 ) GLOBAL_UNCERTAINTY_ASSIGNED_CONTEXT ( ( #360 ) ) GLOBAL_UNIT_ASSIGNED_CONTEXT ( ( #707, #876, #981 ) ) REPRESENTATION_CONTEXT ( 'NONE', 'WORKASPACE' ) );
#402 = CARTESIAN_POINT ( 'NONE',  ( 75.56499999999999773, 70.23100000000000875, 0.000000000000000000 ) ) ;
#403 = VERTEX_POINT ( 'NONE', #647 ) ;
#404 = CARTESIAN_POINT ( 'NONE',  ( 76.96199999999998909, 82.19300000000001205, 2.099999999999999201 ) ) ;
#405 = FACE_OUTER_BOUND ( 'NONE', #324, .T. ) ;
#406 = DIRECTION ( 'NONE',  ( -1.000000000000000000, 0.000000000000000000, 0.000000000000000000 ) ) ;
#407 = PLANE ( 'NONE',  #133 ) ;
#408 = EDGE_CURVE ( 'NONE', #780, #6, #438, .T. ) ;
#409 = DIRECTION ( 'NONE',  ( -1.000000000000000000, 0.000000000000000000, 0.000000000000000000 ) ) ;
#410 = CARTESIAN_POINT ( 'NONE',  ( 0.000000000000000000, 82.32300000000000750, 2.200000000000000178 ) ) ;
#411 = LINE ( 'NONE', #393, #134 ) ;
#412 = PRODUCT_RELATED_PRODUCT_CATEGORY ( 'part', '', ( #910 ) ) ;
#413 = ORIENTED_EDGE ( 'NONE', *, *, #656, .T. ) ;
#414 = ORIENTED_EDGE ( 'NONE', *, *, #448, .T. ) ;
#415 = CARTESIAN_POINT ( 'NONE',  ( 76.06499999999999773, 70.23100000000000875, 2.099999999999995204 ) ) ;
#416 = DIRECTION ( 'NONE',  ( -0.000000000000000000, -0.000000000000000000, -1.000000000000000000 ) ) ;
#417 = CARTESIAN_POINT ( 'NONE',  ( 83.95499999999999829, 70.10399999999999920, 0.000000000000000000 ) ) ;
#418 = DIRECTION ( 'NONE',  ( 0.5773502691896291728, 0.5773502691896291728, -0.5773502691896190697 ) ) ;
#419 = VECTOR ( 'NONE', #1116, 1000.000000000000000 ) ;
#420 = CONICAL_SURFACE ( 'NONE', #267, 1.310000000000005604, 0.7853981633974081999 ) ;
#421 = ORIENTED_EDGE ( 'NONE', *, *, #272, .F. ) ;
#422 = PLANE ( 'NONE',  #33 ) ;
#423 = FILL_AREA_STYLE ('',( #30 ) ) ;
#424 = ORIENTED_EDGE ( 'NONE', *, *, #85, .F. ) ;
#425 = ADVANCED_FACE ( 'NONE', ( #538 ), #343, .F. ) ;
#426 = LINE ( 'NONE', #620, #914 ) ;
#427 = CARTESIAN_POINT ( 'NONE',  ( 75.56499999999999773, 70.23100000000000875, 2.099999999999995204 ) ) ;
#428 = VECTOR ( 'NONE', #712, 1000.000000000000114 ) ;
#429 = EDGE_CURVE ( 'NONE', #387, #526, #1138, .T. ) ;
#430 = FACE_OUTER_BOUND ( 'NONE', #1071, .T. ) ;
#431 = PRESENTATION_STYLE_ASSIGNMENT (( #439 ) ) ;
#432 = DIRECTION ( 'NONE',  ( 0.000000000000000000, 0.000000000000000000, 1.000000000000000000 ) ) ;
#433 = EDGE_CURVE ( 'NONE', #449, #34, #56, .T. ) ;
#434 = CARTESIAN_POINT ( 'NONE',  ( 86.35999999999999943, 71.65199999999998681, 2.099999999999999201 ) ) ;
#435 = AXIS2_PLACEMENT_3D ( 'NONE', #447, #260, #1236 ) ;
#436 = ORIENTED_EDGE ( 'NONE', *, *, #330, .F. ) ;
#437 = EDGE_LOOP ( 'NONE', ( #1135, #86, #1256, #975 ) ) ;
#438 = LINE ( 'NONE', #1219, #428 ) ;
#439 = SURFACE_STYLE_USAGE ( .BOTH. , #1023 ) ;
#440 = FACE_OUTER_BOUND ( 'NONE', #342, .T. ) ;
#441 = CARTESIAN_POINT ( 'NONE',  ( 84.95499999999999829, 70.10399999999999920, 2.099999999999995204 ) ) ;
#442 = ADVANCED_FACE ( 'NONE', ( #630 ), #1028, .F. ) ;
#443 = VERTEX_POINT ( 'NONE', #450 ) ;
#444 = DIRECTION ( 'NONE',  ( 0.000000000000000000, -0.000000000000000000, -1.000000000000000000 ) ) ;
#445 = AXIS2_PLACEMENT_3D ( 'NONE', #169, #174, #280 ) ;
#446 = CARTESIAN_POINT ( 'NONE',  ( 74.01699999999998170, 71.90900000000000603, 2.200000000000000178 ) ) ;
#447 = CARTESIAN_POINT ( 'NONE',  ( 86.13000000000000966, 71.65199999999998681, 2.099999999999999201 ) ) ;
#448 = EDGE_CURVE ( 'NONE', #142, #25, #834, .T. ) ;
#449 = VERTEX_POINT ( 'NONE', #151 ) ;
#450 = CARTESIAN_POINT ( 'NONE',  ( 77.06199999999999761, 71.90900000000000603, 2.200000000000000178 ) ) ;
#451 = DIRECTION ( 'NONE',  ( -0.000000000000000000, -0.000000000000000000, -1.000000000000000000 ) ) ;
#452 = CLOSED_SHELL ( 'NONE', ( #752, #279, #240, #75, #803, #532, #930, #831, #334, #373, #266, #862, #503, #442, #1030, #341, #811, #49, #481, #917, #1003, #984, #724, #1117, #36, #1112, #596, #816, #467, #540, #128, #261, #1153, #425, #293, #304, #492, #311, #459, #349, #796, #139, #847 ) ) ;
#453 = PLANE ( 'NONE',  #1149 ) ;
#454 = ORIENTED_EDGE ( 'NONE', *, *, #135, .T. ) ;
#455 = APPLICATION_CONTEXT ( 'automotive_design' ) ;
#456 = CIRCLE ( 'NONE', #60, 0.5000000000000004441 ) ;
#457 = PRESENTATION_LAYER_ASSIGNMENT (  '', '', ( #781 ) ) ;
#458 = STYLED_ITEM ( 'NONE', ( #10 ), #681 ) ;
#459 = ADVANCED_FACE ( 'NONE', ( #545 ), #289, .T. ) ;
#460 = ORIENTED_EDGE ( 'NONE', *, *, #107, .F. ) ;
#461 = DIRECTION ( 'NONE',  ( 1.000000000000000000, 0.000000000000000000, 0.000000000000000000 ) ) ;
#462 = DIRECTION ( 'NONE',  ( -1.000000000000000000, 0.000000000000000000, 0.000000000000000000 ) ) ;
#463 = CARTESIAN_POINT ( 'NONE',  ( 86.13000000000000966, 71.65199999999998681, 2.200000000000000178 ) ) ;
#464 = EDGE_LOOP ( 'NONE', ( #282, #181, #172, #669 ) ) ;
#465 = CARTESIAN_POINT ( 'NONE',  ( 86.35999999999999943, 71.88199999999999079, 2.200000000000000178 ) ) ;
#466 = LINE ( 'NONE', #1244, #739 ) ;
#467 = ADVANCED_FACE ( 'NONE', ( #350 ), #422, .F. ) ;
#468 = VECTOR ( 'NONE', #637, 1000.000000000000000 ) ;
#469 = ORIENTED_EDGE ( 'NONE', *, *, #787, .T. ) ;
#470 = DIRECTION ( 'NONE',  ( -0.000000000000000000, 0.000000000000000000, -1.000000000000000000 ) ) ;
#471 = LINE ( 'NONE', #1049, #502 ) ;
#472 = CONICAL_SURFACE ( 'NONE', #1193, 0.1299999999999912337, 0.7853981633974865817 ) ;
#473 = EDGE_CURVE ( 'NONE', #757, #1201, #156, .T. ) ;
#474 = AXIS2_PLACEMENT_3D ( 'NONE', #1192, #315, #116 ) ;
#475 = PRESENTATION_LAYER_ASSIGNMENT (  '', '', ( #458 ) ) ;
#476 = ORIENTED_EDGE ( 'NONE', *, *, #54, .F. ) ;
#477 = FACE_OUTER_BOUND ( 'NONE', #507, .T. ) ;
#478 = DIRECTION ( 'NONE',  ( -0.000000000000000000, -0.000000000000000000, -1.000000000000000000 ) ) ;
#479 = ORIENTED_EDGE ( 'NONE', *, *, #347, .T. ) ;
#480 = ORIENTED_EDGE ( 'NONE', *, *, #1180, .F. ) ;
#481 = ADVANCED_FACE ( 'NONE', ( #1093 ), #615, .T. ) ;
#482 = ORIENTED_EDGE ( 'NONE', *, *, #73, .T. ) ;
#483 = FACE_OUTER_BOUND ( 'NONE', #50, .T. ) ;
#484 = PRODUCT_DEFINITION_SHAPE ( 'NONE', 'NONE',  #629 ) ;
#485 = CARTESIAN_POINT ( 'NONE',  ( 74.01699999999998170, 69.08799999999999386, 0.000000000000000000 ) ) ;
#486 = DIRECTION ( 'NONE',  ( -0.000000000000000000, 1.000000000000000000, -0.000000000000000000 ) ) ;
#487 = LINE ( 'NONE', #902, #168 ) ;
#488 = SURFACE_STYLE_FILL_AREA ( #423 ) ;
#489 = VERTEX_POINT ( 'NONE', #609 ) ;
#490 = AXIS2_PLACEMENT_3D ( 'NONE', #68, #1058, #652 ) ;
#491 = ORIENTED_EDGE ( 'NONE', *, *, #1078, .F. ) ;
#492 = ADVANCED_FACE ( 'NONE', ( #1263 ), #1182, .F. ) ;
#493 = ORIENTED_EDGE ( 'NONE', *, *, #949, .T. ) ;
#494 = DIRECTION ( 'NONE',  ( 0.000000000000000000, -1.000000000000000000, 0.000000000000000000 ) ) ;
#495 = VERTEX_POINT ( 'NONE', #1101 ) ;
#496 = CARTESIAN_POINT ( 'NONE',  ( 0.000000000000000000, 71.78199999999998226, 2.200000000000000178 ) ) ;
#497 = CARTESIAN_POINT ( 'NONE',  ( 83.05799999999999272, 71.88199999999999079, 0.000000000000000000 ) ) ;
#498 = DIRECTION ( 'NONE',  ( -0.000000000000000000, -0.000000000000000000, -1.000000000000000000 ) ) ;
#499 = ORIENTED_EDGE ( 'NONE', *, *, #388, .F. ) ;
#500 = EDGE_LOOP ( 'NONE', ( #797, #55, #98, #43 ) ) ;
#501 = EDGE_LOOP ( 'NONE', ( #544, #601, #1158, #251 ) ) ;
#502 = VECTOR ( 'NONE', #554, 1000.000000000000000 ) ;
#503 = ADVANCED_FACE ( 'NONE', ( #883 ), #602, .F. ) ;
#504 = CIRCLE ( 'NONE', #1211, 0.2299999999999940981 ) ;
#505 = VECTOR ( 'NONE', #295, 1000.000000000000000 ) ;
#506 = DIRECTION ( 'NONE',  ( -0.000000000000000000, -0.000000000000000000, -1.000000000000000000 ) ) ;
#507 = EDGE_LOOP ( 'NONE', ( #1083, #90, #1172, #660, #421, #550, #61, #846, #100, #380, #105, #958, #668, #454 ) ) ;
#508 = CARTESIAN_POINT ( 'NONE',  ( 81.41000001999998403, 80.00000002000000165, -1.549999999999998268 ) ) ;
#509 = CARTESIAN_POINT ( 'NONE',  ( 75.06499999999999773, 70.23100000000000875, 2.099999999999995204 ) ) ;
#510 = LINE ( 'NONE', #895, #399 ) ;
#511 = ORIENTED_EDGE ( 'NONE', *, *, #135, .F. ) ;
#512 = AXIS2_PLACEMENT_3D ( 'NONE', #1123, #745, #228 ) ;
#513 = CARTESIAN_POINT ( 'NONE',  ( 0.000000000000000000, 69.18800000000000239, 2.200000000000000178 ) ) ;
#514 = FACE_OUTER_BOUND ( 'NONE', #574, .T. ) ;
#515 = EDGE_CURVE ( 'NONE', #489, #824, #294, .T. ) ;
#516 = DIRECTION ( 'NONE',  ( -0.000000000000000000, -0.7071067811865414665, -0.7071067811865536790 ) ) ;
#517 = CIRCLE ( 'NONE', #159, 0.6000000000000033085 ) ;
#518 = ORIENTED_EDGE ( 'NONE', *, *, #760, .T. ) ;
#519 = ORIENTED_EDGE ( 'NONE', *, *, #1190, .T. ) ;
#520 = ORIENTED_EDGE ( 'NONE', *, *, #774, .T. ) ;
#521 = VERTEX_POINT ( 'NONE', #92 ) ;
#522 = DIRECTION ( 'NONE',  ( 0.7071067811865414665, 0.000000000000000000, -0.7071067811865536790 ) ) ;
#523 = DIRECTION ( 'NONE',  ( -0.7071067811865192621, 8.659560562354585266E-17, 0.7071067811865759944 ) ) ;
#524 = EDGE_CURVE ( 'NONE', #662, #44, #9, .T. ) ;
#525 = AXIS2_PLACEMENT_3D ( 'NONE', #1184, #13, #406 ) ;
#526 = VERTEX_POINT ( 'NONE', #417 ) ;
#527 = CARTESIAN_POINT ( 'NONE',  ( 73.78699999999999193, 72.00900000000000034, 2.099999999999999201 ) ) ;
#528 = AXIS2_PLACEMENT_3D ( 'NONE', #284, #894, #1075 ) ;
#529 = DIRECTION ( 'NONE',  ( 0.000000000000000000, 0.000000000000000000, 1.000000000000000000 ) ) ;
#530 =( NAMED_UNIT ( * ) SI_UNIT ( $, .STERADIAN. ) SOLID_ANGLE_UNIT ( ) );
#531 = CARTESIAN_POINT ( 'NONE',  ( 75.06499999999999773, 70.23100000000000875, 3.614213562373096433 ) ) ;
#532 = ADVANCED_FACE ( 'NONE', ( #405 ), #700, .T. ) ;
#533 = APPLICATION_PROTOCOL_DEFINITION ( 'draft international standard', 'automotive_design', 1998, #1134 ) ;
#534 = DIRECTION ( 'NONE',  ( -1.000000000000000000, 0.000000000000000000, 0.000000000000000000 ) ) ;
#535 = CYLINDRICAL_SURFACE ( 'NONE', #374, 0.2299999999999940981 ) ;
#536 = ORIENTED_EDGE ( 'NONE', *, *, #160, .F. ) ;
#537 = ORIENTED_EDGE ( 'NONE', *, *, #515, .T. ) ;
#538 = FACE_OUTER_BOUND ( 'NONE', #501, .T. ) ;
#539 = DIRECTION ( 'NONE',  ( 0.000000000000000000, 1.000000000000000000, 0.000000000000000000 ) ) ;
#540 = ADVANCED_FACE ( 'NONE', ( #987 ), #1085, .F. ) ;
#541 = LINE ( 'NONE', #1037, #1081 ) ;
#542 = DIRECTION ( 'NONE',  ( -1.000000000000000000, 0.000000000000000000, 0.000000000000000000 ) ) ;
#543 = AXIS2_PLACEMENT_3D ( 'NONE', #138, #919, #35 ) ;
#544 = ORIENTED_EDGE ( 'NONE', *, *, #244, .T. ) ;
#545 = FACE_OUTER_BOUND ( 'NONE', #1007, .T. ) ;
#546 = PRODUCT_CONTEXT ( 'NONE', #1134, 'mechanical' ) ;
#547 = CARTESIAN_POINT ( 'NONE',  ( 82.82800000000000296, 82.42300000000001603, 0.000000000000000000 ) ) ;
#548 = DIRECTION ( 'NONE',  ( -1.000000000000000000, 0.000000000000000000, 0.000000000000000000 ) ) ;
#549 = EDGE_CURVE ( 'NONE', #1245, #306, #487, .T. ) ;
#550 = ORIENTED_EDGE ( 'NONE', *, *, #891, .F. ) ;
#551 = CARTESIAN_POINT ( 'NONE',  ( 0.000000000000000000, 69.18800000000000239, 2.200000000000000178 ) ) ;
#552 = CIRCLE ( 'NONE', #832, 1.409999999999994591 ) ;
#553 = LINE ( 'NONE', #940, #367 ) ;
#554 = DIRECTION ( 'NONE',  ( -0.000000000000000000, -0.000000000000000000, 1.000000000000000000 ) ) ;
#555 = ORIENTED_EDGE ( 'NONE', *, *, #956, .T. ) ;
#556 = EDGE_CURVE ( 'NONE', #44, #6, #149, .T. ) ;
#557 = EDGE_LOOP ( 'NONE', ( #71, #1122 ) ) ;
#558 = DIRECTION ( 'NONE',  ( -1.000000000000000000, 0.000000000000000000, 0.000000000000000000 ) ) ;
#559 = CARTESIAN_POINT ( 'NONE',  ( 86.13000000000000966, 71.65199999999998681, 0.000000000000000000 ) ) ;
#560 = AXIS2_PLACEMENT_3D ( 'NONE', #365, #952, #1150 ) ;
#561 = COLOUR_RGB ( '',0.5372549019607842924, 0.3490196078431372362, 0.3372549019607843368 ) ;
#562 = CIRCLE ( 'NONE', #1212, 0.2299999999999940981 ) ;
#563 = ORIENTED_EDGE ( 'NONE', *, *, #900, .F. ) ;
#564 = EDGE_CURVE ( 'NONE', #1248, #1064, #112, .T. ) ;
#565 =( NAMED_UNIT ( * ) SI_UNIT ( $, .STERADIAN. ) SOLID_ANGLE_UNIT ( ) );
#566 = FACE_OUTER_BOUND ( 'NONE', #296, .T. ) ;
#567 = FACE_OUTER_BOUND ( 'NONE', #1237, .T. ) ;
#568 = ORIENTED_EDGE ( 'NONE', *, *, #891, .T. ) ;
#569 = EDGE_LOOP ( 'NONE', ( #1169, #1165, #226, #904 ) ) ;
#570 = EDGE_CURVE ( 'NONE', #733, #773, #1167, .T. ) ;
#571 = DIRECTION ( 'NONE',  ( 1.000000000000000000, 0.000000000000000000, 0.000000000000000000 ) ) ;
#572 = CARTESIAN_POINT ( 'NONE',  ( 83.05799999999999272, 71.88199999999999079, 0.000000000000000000 ) ) ;
#573 = VERTEX_POINT ( 'NONE', #22 ) ;
#574 = EDGE_LOOP ( 'NONE', ( #76, #810, #109, #536 ) ) ;
#575 = DIRECTION ( 'NONE',  ( -1.000000000000000000, 0.000000000000000000, 0.000000000000000000 ) ) ;
#576 = EDGE_CURVE ( 'NONE', #1005, #605, #1131, .T. ) ;
#577 = CARTESIAN_POINT ( 'NONE',  ( 76.96199999999998909, 72.00900000000000034, 0.000000000000000000 ) ) ;
#578 = ORIENTED_EDGE ( 'NONE', *, *, #1249, .F. ) ;
#579 = AXIS2_PLACEMENT_3D ( 'NONE', #971, #416, #1173 ) ;
#580 = AXIS2_PLACEMENT_3D ( 'NONE', #326, #713, #229 ) ;
#581 = ORIENTED_EDGE ( 'NONE', *, *, #227, .F. ) ;
#582 = ORIENTED_EDGE ( 'NONE', *, *, #748, .F. ) ;
#583 = DIRECTION ( 'NONE',  ( -1.000000000000000000, 0.000000000000000000, 0.000000000000000000 ) ) ;
#584 = DIRECTION ( 'NONE',  ( -1.000000000000000000, 0.000000000000000000, 0.000000000000000000 ) ) ;
#585 = VERTEX_POINT ( 'NONE', #706 ) ;
#586 = CARTESIAN_POINT ( 'NONE',  ( 82.80400000000000205, 69.08799999999999386, 2.099999999999999201 ) ) ;
#587 = DIRECTION ( 'NONE',  ( 0.000000000000000000, -1.000000000000000000, 0.000000000000000000 ) ) ;
#588 = CARTESIAN_POINT ( 'NONE',  ( 76.96199999999998909, 72.00900000000000034, 2.099999999999999201 ) ) ;
#589 = ORIENTED_EDGE ( 'NONE', *, *, #661, .T. ) ;
#590 = ORIENTED_EDGE ( 'NONE', *, *, #606, .T. ) ;
#591 = DIRECTION ( 'NONE',  ( 1.000000000000000000, 0.000000000000000000, 0.000000000000000000 ) ) ;
#592 = ORIENTED_EDGE ( 'NONE', *, *, #107, .T. ) ;
#593 = CARTESIAN_POINT ( 'NONE',  ( 84.45499999999999829, 70.10399999999999920, 3.614213562373096433 ) ) ;
#594 = DIRECTION ( 'NONE',  ( 0.000000000000000000, 0.7071067811865536790, -0.7071067811865414665 ) ) ;
#595 = CARTESIAN_POINT ( 'NONE',  ( 81.41000001999998403, 80.00000002000000165, -1.649999999999999911 ) ) ;
#596 = ADVANCED_FACE ( 'NONE', ( #1188 ), #805, .T. ) ;
#597 = ORIENTED_EDGE ( 'NONE', *, *, #1087, .F. ) ;
#598 = FACE_BOUND ( 'NONE', #14, .T. ) ;
#599 = ORIENTED_EDGE ( 'NONE', *, *, #1121, .T. ) ;
#600 = CARTESIAN_POINT ( 'NONE',  ( 84.45499999999999829, 70.10399999999999920, 2.200000000000000178 ) ) ;
#601 = ORIENTED_EDGE ( 'NONE', *, *, #644, .F. ) ;
#602 = PLANE ( 'NONE',  #1069 ) ;
#603 = SURFACE_STYLE_USAGE ( .BOTH. , #801 ) ;
#604 = CIRCLE ( 'NONE', #525, 0.1299999999999912337 ) ;
#605 = VERTEX_POINT ( 'NONE', #676 ) ;
#606 = EDGE_CURVE ( 'NONE', #34, #1248, #1067, .T. ) ;
#607 = LINE ( 'NONE', #415, #1029 ) ;
#608 = DIRECTION ( 'NONE',  ( -1.000000000000000000, 0.000000000000000000, 0.000000000000000000 ) ) ;
#609 = CARTESIAN_POINT ( 'NONE',  ( 86.35999999999999943, 71.65199999999998681, 0.000000000000000000 ) ) ;
#610 = DIRECTION ( 'NONE',  ( 0.000000000000000000, 1.000000000000000000, 0.000000000000000000 ) ) ;
#611 = ORIENTED_EDGE ( 'NONE', *, *, #1208, .F. ) ;
#612 = DIRECTION ( 'NONE',  ( -0.000000000000000000, -0.000000000000000000, 1.000000000000000000 ) ) ;
#613 = EDGE_CURVE ( 'NONE', #372, #897, #102, .T. ) ;
#614 = CARTESIAN_POINT ( 'NONE',  ( 73.88700000000000045, 69.31799999999998363, 2.200000000000000178 ) ) ;
#615 = CYLINDRICAL_SURFACE ( 'NONE', #743, 0.2299999999999940981 ) ;
#616 = DIRECTION ( 'NONE',  ( 0.000000000000000000, -0.000000000000000000, 1.000000000000000000 ) ) ;
#617 = CARTESIAN_POINT ( 'NONE',  ( 86.13000000000000966, 69.18800000000000239, 2.200000000000000178 ) ) ;
#618 = ORIENTED_EDGE ( 'NONE', *, *, #911, .T. ) ;
#619 = FACE_OUTER_BOUND ( 'NONE', #277, .T. ) ;
#620 = CARTESIAN_POINT ( 'NONE',  ( 86.26000000000000512, 0.000000000000000000, 2.200000000000000178 ) ) ;
#621 = AXIS2_PLACEMENT_3D ( 'NONE', #1120, #931, #1017 ) ;
#622 = CARTESIAN_POINT ( 'NONE',  ( 74.01699999999998170, 69.18800000000000239, 2.200000000000000178 ) ) ;
#623 = EDGE_CURVE ( 'NONE', #1245, #573, #411, .T. ) ;
#624 = CARTESIAN_POINT ( 'NONE',  ( 82.95799999999998420, 71.78199999999998226, 2.200000000000000178 ) ) ;
#625 = DIRECTION ( 'NONE',  ( -1.000000000000000000, 0.000000000000000000, 0.000000000000000000 ) ) ;
#626 = FACE_OUTER_BOUND ( 'NONE', #873, .T. ) ;
#627 = EDGE_CURVE ( 'NONE', #878, #1251, #888, .T. ) ;
#628 = AXIS2_PLACEMENT_3D ( 'NONE', #1043, #259, #732 ) ;
#629 = PRODUCT_DEFINITION ( '未知', '', #1176, #807 ) ;
#630 = FACE_OUTER_BOUND ( 'NONE', #396, .T. ) ;
#631 = LINE ( 'NONE', #46, #63 ) ;
#632 = LINE ( 'NONE', #944, #837 ) ;
#633 = CARTESIAN_POINT ( 'NONE',  ( 82.82800000000000296, 82.19300000000001205, 0.000000000000000000 ) ) ;
#634 = CIRCLE ( 'NONE', #183, 0.2299999999999940981 ) ;
#635 = EDGE_LOOP ( 'NONE', ( #537, #898, #479, #749 ) ) ;
#636 = CARTESIAN_POINT ( 'NONE',  ( 0.000000000000000000, 82.32300000000000750, 2.200000000000000178 ) ) ;
#637 = DIRECTION ( 'NONE',  ( 0.000000000000000000, 0.000000000000000000, 1.000000000000000000 ) ) ;
#638 = DIRECTION ( 'NONE',  ( 0.7071067811865536790, 0.000000000000000000, -0.7071067811865414665 ) ) ;
#639 = CIRCLE ( 'NONE', #80, 0.2299999999999940981 ) ;
#640 = AXIS2_PLACEMENT_3D ( 'NONE', #800, #302, #907 ) ;
#641 = ORIENTED_EDGE ( 'NONE', *, *, #211, .F. ) ;
#642 = DIRECTION ( 'NONE',  ( 0.7071067811865536790, 0.000000000000000000, 0.7071067811865414665 ) ) ;
#643 = DIRECTION ( 'NONE',  ( 0.000000000000000000, 0.000000000000000000, -1.000000000000000000 ) ) ;
#644 = EDGE_CURVE ( 'NONE', #806, #104, #884, .T. ) ;
#645 = CARTESIAN_POINT ( 'NONE',  ( 78.69000001999998517, 80.00000002000000165, -1.649999999999999911 ) ) ;
#646 = ORIENTED_EDGE ( 'NONE', *, *, #766, .F. ) ;
#647 = CARTESIAN_POINT ( 'NONE',  ( 83.05799999999999272, 82.19300000000001205, 2.099999999999999201 ) ) ;
#648 = AXIS2_PLACEMENT_3D ( 'NONE', #72, #470, #968 ) ;
#649 = LINE ( 'NONE', #1132, #468 ) ;
#650 = DIRECTION ( 'NONE',  ( 0.000000000000000000, 0.000000000000000000, -1.000000000000000000 ) ) ;
#651 = EDGE_LOOP ( 'NONE', ( #1204, #137, #921, #1034, #982, #879, #772, #78, #1, #992, #313, #667, #783, #66 ) ) ;
#652 = DIRECTION ( 'NONE',  ( -1.000000000000000000, 0.000000000000000000, 0.000000000000000000 ) ) ;
#653 = CYLINDRICAL_SURFACE ( 'NONE', #7, 0.2299999999999940981 ) ;
#654 = AXIS2_PLACEMENT_3D ( 'NONE', #792, #5, #899 ) ;
#655 = VECTOR ( 'NONE', #236, 1000.000000000000000 ) ;
#656 = EDGE_CURVE ( 'NONE', #143, #97, #127, .T. ) ;
#657 = ORIENTED_EDGE ( 'NONE', *, *, #1230, .T. ) ;
#658 = DIRECTION ( 'NONE',  ( 0.000000000000000000, -1.000000000000000000, 0.000000000000000000 ) ) ;
#659 = CARTESIAN_POINT ( 'NONE',  ( 86.35999999999999943, 69.31799999999998363, 2.099999999999999201 ) ) ;
#660 = ORIENTED_EDGE ( 'NONE', *, *, #684, .T. ) ;
#661 = EDGE_CURVE ( 'NONE', #1151, #142, #1086, .T. ) ;
#662 = VERTEX_POINT ( 'NONE', #1189 ) ;
#663 = CARTESIAN_POINT ( 'NONE',  ( 84.45499999999999829, 70.10399999999999920, 3.614213562373096433 ) ) ;
#664 = EDGE_CURVE ( 'NONE', #104, #1248, #355, .T. ) ;
#665 = AXIS2_PLACEMENT_3D ( 'NONE', #237, #643, #1019 ) ;
#666 = LINE ( 'NONE', #1140, #31 ) ;
#667 = ORIENTED_EDGE ( 'NONE', *, *, #433, .T. ) ;
#668 = ORIENTED_EDGE ( 'NONE', *, *, #1216, .F. ) ;
#669 = ORIENTED_EDGE ( 'NONE', *, *, #556, .F. ) ;
#670 = DIRECTION ( 'NONE',  ( 0.000000000000000000, 0.000000000000000000, 1.000000000000000000 ) ) ;
#671 = LINE ( 'NONE', #1260, #742 ) ;
#672 = EDGE_CURVE ( 'NONE', #1005, #300, #120, .T. ) ;
#673 = ORIENTED_EDGE ( 'NONE', *, *, #570, .F. ) ;
#674 = AXIS2_PLACEMENT_3D ( 'NONE', #351, #432, #625 ) ;
#675 = CARTESIAN_POINT ( 'NONE',  ( 74.01699999999998170, 69.31799999999998363, 0.000000000000000000 ) ) ;
#676 = CARTESIAN_POINT ( 'NONE',  ( 74.01699999999998170, 72.00900000000000034, 2.099999999999999201 ) ) ;
#677 = DIRECTION ( 'NONE',  ( -1.000000000000000000, 0.000000000000000000, 0.000000000000000000 ) ) ;
#678 = AXIS2_PLACEMENT_3D ( 'NONE', #924, #1108, #548 ) ;
#679 = VECTOR ( 'NONE', #1000, 1000.000000000000000 ) ;
#680 = EDGE_LOOP ( 'NONE', ( #938, #618, #1046, #166 ) ) ;
#681 = MANIFOLD_SOLID_BREP ( '倒角2', #452 ) ;
#682 = LINE ( 'NONE', #784, #165 ) ;
#683 = ORIENTED_EDGE ( 'NONE', *, *, #708, .F. ) ;
#684 = EDGE_CURVE ( 'NONE', #300, #278, #562, .T. ) ;
#685 = DIRECTION ( 'NONE',  ( 0.000000000000000000, 0.000000000000000000, 1.000000000000000000 ) ) ;
#686 = CARTESIAN_POINT ( 'NONE',  ( 74.01699999999998170, 71.77900000000001057, 2.099999999999999201 ) ) ;
#687 = CARTESIAN_POINT ( 'NONE',  ( 86.35999999999999943, 71.88199999999999079, 2.099999999999999201 ) ) ;
#688 = ORIENTED_EDGE ( 'NONE', *, *, #606, .F. ) ;
#689 = VERTEX_POINT ( 'NONE', #194 ) ;
#690 = CARTESIAN_POINT ( 'NONE',  ( 80.00000001999998744, 80.00000002000000165, -1.649999999999999911 ) ) ;
#691 = ORIENTED_EDGE ( 'NONE', *, *, #570, .T. ) ;
#692 = FACE_OUTER_BOUND ( 'NONE', #464, .T. ) ;
#693 = CARTESIAN_POINT ( 'NONE',  ( 80.00000001999998744, 80.00000002000000165, -1.649999999999999911 ) ) ;
#694 = DIRECTION ( 'NONE',  ( 0.000000000000000000, 0.000000000000000000, 1.000000000000000000 ) ) ;
#695 = EDGE_CURVE ( 'NONE', #1242, #733, #11, .T. ) ;
#696 = EDGE_LOOP ( 'NONE', ( #1011, #741, #176, #863 ) ) ;
#697 = CARTESIAN_POINT ( 'NONE',  ( 85.05500000000000682, 70.10399999999999920, 2.200000000000000178 ) ) ;
#698 = CARTESIAN_POINT ( 'NONE',  ( 80.00000001999998744, 80.00000002000000165, -1.649999999999999911 ) ) ;
#699 = CARTESIAN_POINT ( 'NONE',  ( 74.01699999999998170, 71.77900000000001057, 2.200000000000000178 ) ) ;
#700 = CYLINDRICAL_SURFACE ( 'NONE', #1114, 1.409999999999994591 ) ;
#701 = EDGE_LOOP ( 'NONE', ( #493, #482, #1152, #932 ) ) ;
#702 = EDGE_CURVE ( 'NONE', #870, #495, #208, .T. ) ;
#703 = CIRCLE ( 'NONE', #288, 1.409999999999994591 ) ;
#704 = DIRECTION ( 'NONE',  ( -0.7071067811865536790, 0.000000000000000000, 0.7071067811865414665 ) ) ;
#705 = DIRECTION ( 'NONE',  ( -1.000000000000000000, 0.000000000000000000, 0.000000000000000000 ) ) ;
#706 = CARTESIAN_POINT ( 'NONE',  ( 76.96199999999998909, 72.00900000000000034, 0.000000000000000000 ) ) ;
#707 =( LENGTH_UNIT ( ) NAMED_UNIT ( * ) SI_UNIT ( .MILLI., .METRE. ) );
#708 = EDGE_CURVE ( 'NONE', #824, #886, #1175, .T. ) ;
#709 = AXIS2_PLACEMENT_3D ( 'NONE', #1163, #670, #1047 ) ;
#710 =( NAMED_UNIT ( * ) PLANE_ANGLE_UNIT ( ) SI_UNIT ( $, .RADIAN. ) );
#711 = ORIENTED_EDGE ( 'NONE', *, *, #524, .T. ) ;
#712 = DIRECTION ( 'NONE',  ( 0.7071067811865444641, 0.000000000000000000, 0.7071067811865505703 ) ) ;
#713 = DIRECTION ( 'NONE',  ( 0.000000000000000000, 1.000000000000000000, 0.000000000000000000 ) ) ;
#714 = VECTOR ( 'NONE', #571, 1000.000000000000000 ) ;
#715 = CARTESIAN_POINT ( 'NONE',  ( 77.19199999999997885, 82.42300000000001603, 2.099999999999999201 ) ) ;
#716 = UNCERTAINTY_MEASURE_WITH_UNIT (LENGTH_MEASURE( 1.000000000000000082E-05 ), #1220, 'distance_accuracy_value', 'NONE');
#717 = EDGE_CURVE ( 'NONE', #573, #897, #988, .T. ) ;
#718 = CARTESIAN_POINT ( 'NONE',  ( 76.96199999999998909, 72.00900000000000034, 2.099999999999999201 ) ) ;
#719 = AXIS2_PLACEMENT_3D ( 'NONE', #600, #1074, #608 ) ;
#720 = CONICAL_SURFACE ( 'NONE', #132, 0.5000000000000004441, 0.7853981633974439491 ) ;
#721 = VECTOR ( 'NONE', #494, 1000.000000000000000 ) ;
#722 = VECTOR ( 'NONE', #610, 1000.000000000000000 ) ;
#723 = LINE ( 'NONE', #41, #419 ) ;
#724 = ADVANCED_FACE ( 'NONE', ( #789 ), #1183, .T. ) ;
#725 = DIRECTION ( 'NONE',  ( -0.000000000000000000, -0.000000000000000000, -1.000000000000000000 ) ) ;
#726 = CARTESIAN_POINT ( 'NONE',  ( 74.01699999999998170, 72.00900000000000034, 0.000000000000000000 ) ) ;
#727 = ORIENTED_EDGE ( 'NONE', *, *, #774, .F. ) ;
#728 = LINE ( 'NONE', #1025, #1197 ) ;
#729 = EDGE_CURVE ( 'NONE', #662, #526, #510, .T. ) ;
#730 = ORIENTED_EDGE ( 'NONE', *, *, #717, .T. ) ;
#731 = DIRECTION ( 'NONE',  ( 0.7071067811865414665, 0.000000000000000000, -0.7071067811865536790 ) ) ;
#732 = DIRECTION ( 'NONE',  ( -1.000000000000000000, 0.000000000000000000, 0.000000000000000000 ) ) ;
#733 = VERTEX_POINT ( 'NONE', #153 ) ;
#734 = FACE_OUTER_BOUND ( 'NONE', #959, .T. ) ;
#735 = EDGE_CURVE ( 'NONE', #443, #806, #728, .T. ) ;
#736 = VERTEX_POINT ( 'NONE', #243 ) ;
#737 = DIRECTION ( 'NONE',  ( -0.7071067811865414665, 0.000000000000000000, -0.7071067811865536790 ) ) ;
#738 = CARTESIAN_POINT ( 'NONE',  ( 77.06199999999999761, 82.19300000000001205, 2.200000000000000178 ) ) ;
#739 = VECTOR ( 'NONE', #650, 1000.000000000000000 ) ;
#740 = LINE ( 'NONE', #577, #232 ) ;
#741 = ORIENTED_EDGE ( 'NONE', *, *, #171, .T. ) ;
#742 = VECTOR ( 'NONE', #99, 1000.000000000000000 ) ;
#743 = AXIS2_PLACEMENT_3D ( 'NONE', #875, #29, #207 ) ;
#744 = ORIENTED_EDGE ( 'NONE', *, *, #1098, .T. ) ;
#745 = DIRECTION ( 'NONE',  ( -0.000000000000000000, -0.000000000000000000, -1.000000000000000000 ) ) ;
#746 = CARTESIAN_POINT ( 'NONE',  ( 80.00000001999998744, 80.00000002000000165, 0.000000000000000000 ) ) ;
#747 = CARTESIAN_POINT ( 'NONE',  ( 74.01699999999998170, 69.08799999999999386, 2.099999999999999201 ) ) ;
#748 = EDGE_CURVE ( 'NONE', #177, #150, #639, .T. ) ;
#749 = ORIENTED_EDGE ( 'NONE', *, *, #1216, .T. ) ;
#750 = DIRECTION ( 'NONE',  ( -0.000000000000000000, -0.7071067811865414665, -0.7071067811865536790 ) ) ;
#751 = DIRECTION ( 'NONE',  ( -1.000000000000000000, 0.000000000000000000, 0.000000000000000000 ) ) ;
#752 = ADVANCED_FACE ( 'NONE', ( #626 ), #1065, .F. ) ;
#753 = ORIENTED_EDGE ( 'NONE', *, *, #564, .T. ) ;
#754 = AXIS2_PLACEMENT_3D ( 'NONE', #1096, #217, #893 ) ;
#755 = CARTESIAN_POINT ( 'NONE',  ( 73.78699999999999193, 71.77900000000001057, 0.000000000000000000 ) ) ;
#756 = CARTESIAN_POINT ( 'NONE',  ( 86.13000000000000966, 69.31799999999998363, 2.200000000000000178 ) ) ;
#757 = VERTEX_POINT ( 'NONE', #622 ) ;
#758 = VECTOR ( 'NONE', #1171, 1000.000000000000000 ) ;
#759 = EDGE_CURVE ( 'NONE', #733, #878, #332, .T. ) ;
#760 = EDGE_CURVE ( 'NONE', #1168, #97, #1095, .T. ) ;
#761 = ORIENTED_EDGE ( 'NONE', *, *, #1078, .T. ) ;
#762 = FACE_BOUND ( 'NONE', #943, .T. ) ;
#763 = CARTESIAN_POINT ( 'NONE',  ( 73.88700000000000045, 0.000000000000000000, 2.200000000000000178 ) ) ;
#764 = VERTEX_POINT ( 'NONE', #48 ) ;
#765 = ORIENTED_EDGE ( 'NONE', *, *, #623, .T. ) ;
#766 = EDGE_CURVE ( 'NONE', #306, #403, #817, .T. ) ;
#767 = DIRECTION ( 'NONE',  ( -1.000000000000000000, 0.000000000000000000, 0.000000000000000000 ) ) ;
#768 = CARTESIAN_POINT ( 'NONE',  ( 0.000000000000000000, 0.000000000000000000, 2.200000000000000178 ) ) ;
#769 = ORIENTED_EDGE ( 'NONE', *, *, #922, .F. ) ;
#770 = CARTESIAN_POINT ( 'NONE',  ( 81.41000001999998403, 80.00000002000000165, 0.000000000000000000 ) ) ;
#771 = DIRECTION ( 'NONE',  ( -1.000000000000000000, 0.000000000000000000, 0.000000000000000000 ) ) ;
#772 = ORIENTED_EDGE ( 'NONE', *, *, #1208, .T. ) ;
#773 = VERTEX_POINT ( 'NONE', #809 ) ;
#774 = EDGE_CURVE ( 'NONE', #1005, #205, #723, .T. ) ;
#775 = FACE_BOUND ( 'NONE', #557, .T. ) ;
#776 = EDGE_LOOP ( 'NONE', ( #1162, #24, #383, #83 ) ) ;
#777 = DIRECTION ( 'NONE',  ( 0.000000000000000000, 0.000000000000000000, -1.000000000000000000 ) ) ;
#778 = DIRECTION ( 'NONE',  ( -0.7071067811865444641, 8.659560562354895880E-17, 0.7071067811865505703 ) ) ;
#779 = CARTESIAN_POINT ( 'NONE',  ( 78.69000001999998517, 80.00000002000000165, -1.649999999999999911 ) ) ;
#780 = VERTEX_POINT ( 'NONE', #441 ) ;
#781 = STYLED_ITEM ( 'NONE', ( #431 ), #1141 ) ;
#782 = AXIS2_PLACEMENT_3D ( 'NONE', #258, #1225, #162 ) ;
#783 = ORIENTED_EDGE ( 'NONE', *, *, #4, .T. ) ;
#784 = CARTESIAN_POINT ( 'NONE',  ( 0.000000000000000000, 71.90900000000000603, 2.200000000000000178 ) ) ;
#785 = EDGE_LOOP ( 'NONE', ( #203, #711, #476, #1070 ) ) ;
#786 = DIRECTION ( 'NONE',  ( -1.000000000000000000, -0.000000000000000000, -0.000000000000000000 ) ) ;
#787 = EDGE_CURVE ( 'NONE', #886, #1191, #1048, .T. ) ;
#788 = DIRECTION ( 'NONE',  ( 0.000000000000000000, 0.000000000000000000, 1.000000000000000000 ) ) ;
#789 = FACE_OUTER_BOUND ( 'NONE', #1224, .T. ) ;
#790 = ORIENTED_EDGE ( 'NONE', *, *, #67, .T. ) ;
#791 = ORIENTED_EDGE ( 'NONE', *, *, #627, .T. ) ;
#792 = CARTESIAN_POINT ( 'NONE',  ( 74.01699999999998170, 69.31799999999998363, 2.200000000000000178 ) ) ;
#793 = DIRECTION ( 'NONE',  ( -1.000000000000000000, 0.000000000000000000, 0.000000000000000000 ) ) ;
#794 = DIRECTION ( 'NONE',  ( 1.000000000000000000, 0.000000000000000000, 0.000000000000000000 ) ) ;
#795 = DIRECTION ( 'NONE',  ( 0.000000000000000000, 0.000000000000000000, -1.000000000000000000 ) ) ;
#796 = ADVANCED_FACE ( 'NONE', ( #430 ), #1215, .F. ) ;
#797 = ORIENTED_EDGE ( 'NONE', *, *, #900, .T. ) ;
#798 = DIRECTION ( 'NONE',  ( -1.000000000000000000, 0.000000000000000000, 0.000000000000000000 ) ) ;
#799 = DIRECTION ( 'NONE',  ( -0.000000000000000000, -0.7071067811865414665, -0.7071067811865536790 ) ) ;
#800 = CARTESIAN_POINT ( 'NONE',  ( 84.45499999999999829, 70.10399999999999920, 2.200000000000000178 ) ) ;
#801 = SURFACE_SIDE_STYLE ('',( #488 ) ) ;
#802 = CIRCLE ( 'NONE', #1111, 0.2299999999999940981 ) ;
#803 = ADVANCED_FACE ( 'NONE', ( #1209 ), #420, .T. ) ;
#804 = VECTOR ( 'NONE', #638, 1000.000000000000000 ) ;
#805 = CONICAL_SURFACE ( 'NONE', #528, 0.1299999999999912337, 0.7853981633974865817 ) ;
#806 = VERTEX_POINT ( 'NONE', #718 ) ;
#807 = PRODUCT_DEFINITION_CONTEXT ( 'detailed design', #455, 'design' ) ;
#808 = CARTESIAN_POINT ( 'NONE',  ( 86.26000000000000512, 0.000000000000000000, 2.200000000000000178 ) ) ;
#809 = CARTESIAN_POINT ( 'NONE',  ( 74.96499999999998920, 70.23100000000000875, 2.200000000000000178 ) ) ;
#810 = ORIENTED_EDGE ( 'NONE', *, *, #322, .F. ) ;
#811 = ADVANCED_FACE ( 'NONE', ( #734 ), #535, .T. ) ;
#812 = DIRECTION ( 'NONE',  ( 0.000000000000000000, 0.000000000000000000, -1.000000000000000000 ) ) ;
#813 = LINE ( 'NONE', #1207, #333 ) ;
#814 = VECTOR ( 'NONE', #857, 1000.000000000000000 ) ;
#815 = CARTESIAN_POINT ( 'NONE',  ( 77.19199999999997885, 82.19300000000001205, 0.000000000000000000 ) ) ;
#816 = ADVANCED_FACE ( 'NONE', ( #231 ), #1229, .T. ) ;
#817 = LINE ( 'NONE', #1008, #804 ) ;
#818 = CARTESIAN_POINT ( 'NONE',  ( 76.06499999999999773, 70.23100000000000875, 0.000000000000000000 ) ) ;
#819 = VECTOR ( 'NONE', #506, 1000.000000000000000 ) ;
#820 = PLANE ( 'NONE',  #1040 ) ;
#821 =( GEOMETRIC_REPRESENTATION_CONTEXT ( 3 ) GLOBAL_UNCERTAINTY_ASSIGNED_CONTEXT ( ( #1015 ) ) GLOBAL_UNIT_ASSIGNED_CONTEXT ( ( #1205, #136, #530 ) ) REPRESENTATION_CONTEXT ( 'NONE', 'WORKASPACE' ) );
#822 = AXIS2_PLACEMENT_3D ( 'NONE', #1004, #522, #587 ) ;
#823 = DIRECTION ( 'NONE',  ( -1.000000000000000000, 0.000000000000000000, 0.000000000000000000 ) ) ;
#824 = VERTEX_POINT ( 'NONE', #434 ) ;
#825 = VERTEX_POINT ( 'NONE', #935 ) ;
#826 = CARTESIAN_POINT ( 'NONE',  ( 86.13000000000000966, 71.88199999999999079, 0.000000000000000000 ) ) ;
#827 = DIRECTION ( 'NONE',  ( -1.000000000000000000, 0.000000000000000000, 0.000000000000000000 ) ) ;
#828 = FACE_OUTER_BOUND ( 'NONE', #500, .T. ) ;
#829 = VECTOR ( 'NONE', #642, 1000.000000000000000 ) ;
#830 = DIRECTION ( 'NONE',  ( -1.000000000000000000, 0.000000000000000000, 0.000000000000000000 ) ) ;
#831 = ADVANCED_FACE ( 'NONE', ( #339 ), #1203, .F. ) ;
#832 = AXIS2_PLACEMENT_3D ( 'NONE', #848, #57, #462 ) ;
#833 = EDGE_LOOP ( 'NONE', ( #657, #305, #688, #1199 ) ) ;
#834 = LINE ( 'NONE', #839, #829 ) ;
#835 = DIRECTION ( 'NONE',  ( -0.7071067811865536790, 0.000000000000000000, 0.7071067811865414665 ) ) ;
#836 = LINE ( 'NONE', #270, #841 ) ;
#837 = VECTOR ( 'NONE', #254, 1000.000000000000000 ) ;
#838 = ORIENTED_EDGE ( 'NONE', *, *, #868, .T. ) ;
#839 = CARTESIAN_POINT ( 'NONE',  ( 73.78699999999999193, 69.31799999999998363, 2.099999999999999201 ) ) ;
#840 = CARTESIAN_POINT ( 'NONE',  ( 75.56499999999999773, 70.23100000000000875, 3.614213562373096433 ) ) ;
#841 = VECTOR ( 'NONE', #1247, 1000.000000000000000 ) ;
#842 = DIRECTION ( 'NONE',  ( 0.000000000000000000, 0.000000000000000000, 1.000000000000000000 ) ) ;
#843 = EDGE_LOOP ( 'NONE', ( #970, #578, #1240, #375 ) ) ;
#844 = CIRCLE ( 'NONE', #1012, 0.2299999999999940981 ) ;
#845 = VECTOR ( 'NONE', #616, 1000.000000000000000 ) ;
#846 = ORIENTED_EDGE ( 'NONE', *, *, #67, .F. ) ;
#847 = ADVANCED_FACE ( 'NONE', ( #619 ), #720, .F. ) ;
#848 = CARTESIAN_POINT ( 'NONE',  ( 80.00000001999998744, 80.00000002000000165, -1.549999999999998268 ) ) ;
#849 = CARTESIAN_POINT ( 'NONE',  ( 73.78699999999999193, 72.00900000000000034, 2.200000000000000178 ) ) ;
#850 = ORIENTED_EDGE ( 'NONE', *, *, #549, .F. ) ;
#851 = DIRECTION ( 'NONE',  ( 0.000000000000000000, 0.000000000000000000, 1.000000000000000000 ) ) ;
#852 = LINE ( 'NONE', #381, #814 ) ;
#853 = EDGE_CURVE ( 'NONE', #278, #605, #813, .T. ) ;
#854 = FACE_OUTER_BOUND ( 'NONE', #855, .T. ) ;
#855 = EDGE_LOOP ( 'NONE', ( #499, #881, #1056, #582 ) ) ;
#856 = CIRCLE ( 'NONE', #1026, 0.1299999999999912337 ) ;
#857 = DIRECTION ( 'NONE',  ( 0.000000000000000000, 0.000000000000000000, -1.000000000000000000 ) ) ;
#858 = DIRECTION ( 'NONE',  ( -1.000000000000000000, 0.000000000000000000, 0.000000000000000000 ) ) ;
#859 = ORIENTED_EDGE ( 'NONE', *, *, #949, .F. ) ;
#860 = VECTOR ( 'NONE', #612, 1000.000000000000000 ) ;
#861 = VECTOR ( 'NONE', #973, 1000.000000000000000 ) ;
#862 = ADVANCED_FACE ( 'NONE', ( #1133 ), #1144, .F. ) ;
#863 = ORIENTED_EDGE ( 'NONE', *, *, #729, .F. ) ;
#864 = LINE ( 'NONE', #961, #714 ) ;
#865 = PLANE ( 'NONE',  #42 ) ;
#866 = ORIENTED_EDGE ( 'NONE', *, *, #429, .F. ) ;
#867 = DIRECTION ( 'NONE',  ( -1.000000000000000000, 0.000000000000000000, 0.000000000000000000 ) ) ;
#868 = EDGE_CURVE ( 'NONE', #780, #662, #456, .T. ) ;
#869 = VERTEX_POINT ( 'NONE', #747 ) ;
#870 = VERTEX_POINT ( 'NONE', #645 ) ;
#871 = CIRCLE ( 'NONE', #490, 0.5000000000000004441 ) ;
#872 = LINE ( 'NONE', #890, #887 ) ;
#873 = EDGE_LOOP ( 'NONE', ( #436, #691, #424, #155 ) ) ;
#874 = FACE_OUTER_BOUND ( 'NONE', #696, .T. ) ;
#875 = CARTESIAN_POINT ( 'NONE',  ( 77.19199999999997885, 82.19300000000001205, 2.200000000000000178 ) ) ;
#876 =( NAMED_UNIT ( * ) PLANE_ANGLE_UNIT ( ) SI_UNIT ( $, .RADIAN. ) );
#877 = ORIENTED_EDGE ( 'NONE', *, *, #853, .F. ) ;
#878 = VERTEX_POINT ( 'NONE', #1239 ) ;
#879 = ORIENTED_EDGE ( 'NONE', *, *, #124, .T. ) ;
#880 = PLANE ( 'NONE',  #167 ) ;
#881 = ORIENTED_EDGE ( 'NONE', *, *, #23, .T. ) ;
#882 = DIRECTION ( 'NONE',  ( -1.000000000000000000, 0.000000000000000000, 0.000000000000000000 ) ) ;
#883 = FACE_OUTER_BOUND ( 'NONE', #257, .T. ) ;
#884 = LINE ( 'NONE', #588, #722 ) ;
#885 = AXIS2_PLACEMENT_3D ( 'NONE', #1033, #141, #830 ) ;
#886 = VERTEX_POINT ( 'NONE', #659 ) ;
#887 = VECTOR ( 'NONE', #382, 999.9999999999998863 ) ;
#888 = CIRCLE ( 'NONE', #915, 0.5000000000000004441 ) ;
#889 = EDGE_LOOP ( 'NONE', ( #765, #368, #646, #850 ) ) ;
#890 = CARTESIAN_POINT ( 'NONE',  ( 81.31000001999998972, 80.00000002000000165, -1.649999999999999911 ) ) ;
#891 = EDGE_CURVE ( 'NONE', #521, #585, #740, .T. ) ;
#892 = ORIENTED_EDGE ( 'NONE', *, *, #256, .T. ) ;
#893 = DIRECTION ( 'NONE',  ( -1.000000000000000000, 0.000000000000000000, 0.000000000000000000 ) ) ;
#894 = DIRECTION ( 'NONE',  ( 0.000000000000000000, 0.000000000000000000, -1.000000000000000000 ) ) ;
#895 = CARTESIAN_POINT ( 'NONE',  ( 83.95499999999999829, 70.10399999999999920, 3.614213562373096433 ) ) ;
#896 = AXIS2_PLACEMENT_3D ( 'NONE', #325, #1107, #1022 ) ;
#897 = VERTEX_POINT ( 'NONE', #572 ) ;
#898 = ORIENTED_EDGE ( 'NONE', *, *, #708, .T. ) ;
#899 = DIRECTION ( 'NONE',  ( -1.000000000000000000, 0.000000000000000000, 0.000000000000000000 ) ) ;
#900 = EDGE_CURVE ( 'NONE', #869, #757, #666, .T. ) ;
#901 = PLANE ( 'NONE',  #909 ) ;
#902 = CARTESIAN_POINT ( 'NONE',  ( 82.95799999999998420, 0.000000000000000000, 2.200000000000000178 ) ) ;
#903 = CARTESIAN_POINT ( 'NONE',  ( 75.56499999999999773, 70.23100000000000875, 0.000000000000000000 ) ) ;
#904 = ORIENTED_EDGE ( 'NONE', *, *, #358, .F. ) ;
#905 = DIRECTION ( 'NONE',  ( -0.000000000000000000, -0.000000000000000000, -1.000000000000000000 ) ) ;
#906 = ORIENTED_EDGE ( 'NONE', *, *, #1146, .T. ) ;
#907 = DIRECTION ( 'NONE',  ( -1.000000000000000000, 0.000000000000000000, 0.000000000000000000 ) ) ;
#908 = DIRECTION ( 'NONE',  ( -0.000000000000000000, -0.000000000000000000, -1.000000000000000000 ) ) ;
#909 = AXIS2_PLACEMENT_3D ( 'NONE', #496, #799, #867 ) ;
#910 = PRODUCT ( '驱动电流传导块', '驱动电流传导块', '', ( #546 ) ) ;
#911 = EDGE_CURVE ( 'NONE', #736, #824, #989, .T. ) ;
#912 = AXIS2_PLACEMENT_3D ( 'NONE', #756, #1157, #274 ) ;
#913 = VERTEX_POINT ( 'NONE', #265 ) ;
#914 = VECTOR ( 'NONE', #539, 1000.000000000000000 ) ;
#915 = AXIS2_PLACEMENT_3D ( 'NONE', #903, #908, #1264 ) ;
#916 = DIRECTION ( 'NONE',  ( 1.000000000000000000, 0.000000000000000000, 0.000000000000000000 ) ) ;
#917 = ADVANCED_FACE ( 'NONE', ( #854 ), #653, .T. ) ;
#918 = CARTESIAN_POINT ( 'NONE',  ( 83.05799999999999272, 82.42300000000001603, 2.099999999999999201 ) ) ;
#919 = DIRECTION ( 'NONE',  ( 0.000000000000000000, 0.000000000000000000, -1.000000000000000000 ) ) ;
#920 = VECTOR ( 'NONE', #835, 1000.000000000000000 ) ;
#921 = ORIENTED_EDGE ( 'NONE', *, *, #993, .T. ) ;
#922 = EDGE_CURVE ( 'NONE', #869, #1073, #836, .T. ) ;
#923 = DIRECTION ( 'NONE',  ( 0.000000000000000000, -0.7071067811865536790, 0.7071067811865414665 ) ) ;
#924 = CARTESIAN_POINT ( 'NONE',  ( 82.82800000000000296, 82.19300000000001205, 2.200000000000000178 ) ) ;
#925 = VECTOR ( 'NONE', #486, 1000.000000000000000 ) ;
#926 = ORIENTED_EDGE ( 'NONE', *, *, #95, .F. ) ;
#927 = FACE_OUTER_BOUND ( 'NONE', #776, .T. ) ;
#928 = AXIS2_PLACEMENT_3D ( 'NONE', #402, #20, #994 ) ;
#929 = DIRECTION ( 'NONE',  ( 0.000000000000000000, 0.000000000000000000, 1.000000000000000000 ) ) ;
#930 = ADVANCED_FACE ( 'NONE', ( #1227 ), #453, .F. ) ;
#931 = DIRECTION ( 'NONE',  ( -0.000000000000000000, -0.000000000000000000, -1.000000000000000000 ) ) ;
#932 = ORIENTED_EDGE ( 'NONE', *, *, #379, .T. ) ;
#933 = DIRECTION ( 'NONE',  ( -1.000000000000000000, 0.000000000000000000, 0.000000000000000000 ) ) ;
#934 = DIRECTION ( 'NONE',  ( -1.000000000000000000, 0.000000000000000000, 0.000000000000000000 ) ) ;
#935 = CARTESIAN_POINT ( 'NONE',  ( 74.01699999999998170, 71.90900000000000603, 2.200000000000000178 ) ) ;
#936 = EDGE_CURVE ( 'NONE', #1242, #1251, #466, .T. ) ;
#937 = VECTOR ( 'NONE', #1226, 1000.000000000000000 ) ;
#938 = ORIENTED_EDGE ( 'NONE', *, *, #364, .F. ) ;
#939 = CARTESIAN_POINT ( 'NONE',  ( 82.80400000000000205, 69.08799999999999386, 0.000000000000000000 ) ) ;
#940 = CARTESIAN_POINT ( 'NONE',  ( 73.78699999999999193, 72.00900000000000034, 0.000000000000000000 ) ) ;
#941 = DIRECTION ( 'NONE',  ( 0.000000000000000000, 0.000000000000000000, 1.000000000000000000 ) ) ;
#942 = CIRCLE ( 'NONE', #719, 0.6000000000000033085 ) ;
#943 = EDGE_LOOP ( 'NONE', ( #1105, #597 ) ) ;
#944 = CARTESIAN_POINT ( 'NONE',  ( 84.95499999999999829, 70.10399999999999920, 3.614213562373096433 ) ) ;
#945 = AXIS2_PLACEMENT_3D ( 'NONE', #303, #694, #113 ) ;
#946 = DIRECTION ( 'NONE',  ( -0.000000000000000000, -0.000000000000000000, -1.000000000000000000 ) ) ;
#947 = CIRCLE ( 'NONE', #335, 1.310000000000005604 ) ;
#948 = VECTOR ( 'NONE', #1195, 1000.000000000000114 ) ;
#949 = EDGE_CURVE ( 'NONE', #689, #1191, #471, .T. ) ;
#950 = VERTEX_POINT ( 'NONE', #1044 ) ;
#951 = CARTESIAN_POINT ( 'NONE',  ( 77.06199999999999761, 0.000000000000000000, 2.200000000000000178 ) ) ;
#952 = DIRECTION ( 'NONE',  ( 0.000000000000000000, -1.000000000000000000, 0.000000000000000000 ) ) ;
#953 = ORIENTED_EDGE ( 'NONE', *, *, #729, .T. ) ;
#954 = FACE_BOUND ( 'NONE', #115, .T. ) ;
#955 = CYLINDRICAL_SURFACE ( 'NONE', #1113, 0.2299999999999940981 ) ;
#956 = EDGE_CURVE ( 'NONE', #143, #495, #703, .T. ) ;
#957 = ORIENTED_EDGE ( 'NONE', *, *, #1104, .T. ) ;
#958 = ORIENTED_EDGE ( 'NONE', *, *, #963, .T. ) ;
#959 = EDGE_LOOP ( 'NONE', ( #769, #268, #297, #926 ) ) ;
#960 = AXIS2_PLACEMENT_3D ( 'NONE', #214, #1084, #206 ) ;
#961 = CARTESIAN_POINT ( 'NONE',  ( 83.05799999999999272, 71.88199999999999079, 2.099999999999999201 ) ) ;
#962 = DIRECTION ( 'NONE',  ( -1.000000000000000000, 0.000000000000000000, 0.000000000000000000 ) ) ;
#963 = EDGE_CURVE ( 'NONE', #372, #489, #185, .T. ) ;
#964 = ORIENTED_EDGE ( 'NONE', *, *, #201, .T. ) ;
#965 = VECTOR ( 'NONE', #53, 1000.000000000000000 ) ;
#966 = VECTOR ( 'NONE', #594, 1000.000000000000000 ) ;
#967 = EDGE_LOOP ( 'NONE', ( #271, #999, #877, #182 ) ) ;
#968 = DIRECTION ( 'NONE',  ( -1.000000000000000000, 0.000000000000000000, 0.000000000000000000 ) ) ;
#969 = LINE ( 'NONE', #220, #860 ) ;
#970 = ORIENTED_EDGE ( 'NONE', *, *, #735, .T. ) ;
#971 = CARTESIAN_POINT ( 'NONE',  ( 75.56499999999999773, 70.23100000000000875, 2.200000000000000178 ) ) ;
#972 = DIRECTION ( 'NONE',  ( 1.000000000000000000, 0.000000000000000000, 0.000000000000000000 ) ) ;
#973 = DIRECTION ( 'NONE',  ( 0.000000000000000000, 0.000000000000000000, 1.000000000000000000 ) ) ;
#974 = VECTOR ( 'NONE', #1202, 1000.000000000000000 ) ;
#975 = ORIENTED_EDGE ( 'NONE', *, *, #759, .F. ) ;
#976 = VERTEX_POINT ( 'NONE', #170 ) ;
#977 = CARTESIAN_POINT ( 'NONE',  ( 78.59000001999999085, 80.00000002000000165, 0.000000000000000000 ) ) ;
#978 = ORIENTED_EDGE ( 'NONE', *, *, #1121, .F. ) ;
#979 = DIRECTION ( 'NONE',  ( 0.000000000000000000, 1.000000000000000000, 0.000000000000000000 ) ) ;
#980 = CARTESIAN_POINT ( 'NONE',  ( 83.95499999999999829, 70.10399999999999920, 2.099999999999995204 ) ) ;
#981 =( NAMED_UNIT ( * ) SI_UNIT ( $, .STERADIAN. ) SOLID_ANGLE_UNIT ( ) );
#982 = ORIENTED_EDGE ( 'NONE', *, *, #473, .T. ) ;
#983 = ORIENTED_EDGE ( 'NONE', *, *, #644, .T. ) ;
#984 = ADVANCED_FACE ( 'NONE', ( #65 ), #955, .T. ) ;
#985 = LINE ( 'NONE', #108, #758 ) ;
#986 = CARTESIAN_POINT ( 'NONE',  ( 76.96199999999998909, 82.19300000000001205, 2.200000000000000178 ) ) ;
#987 = FACE_OUTER_BOUND ( 'NONE', #833, .T. ) ;
#988 = LINE ( 'NONE', #1076, #114 ) ;
#989 = CIRCLE ( 'NONE', #435, 0.2299999999999940981 ) ;
#990 = ORIENTED_EDGE ( 'NONE', *, *, #233, .F. ) ;
#991 = VECTOR ( 'NONE', #215, 1000.000000000000000 ) ;
#992 = ORIENTED_EDGE ( 'NONE', *, *, #549, .T. ) ;
#993 = EDGE_CURVE ( 'NONE', #205, #25, #378, .T. ) ;
#994 = DIRECTION ( 'NONE',  ( -1.000000000000000000, 0.000000000000000000, 0.000000000000000000 ) ) ;
#995 = CARTESIAN_POINT ( 'NONE',  ( 73.78699999999999193, 72.00900000000000034, 2.099999999999999201 ) ) ;
#996 = CARTESIAN_POINT ( 'NONE',  ( 76.96199999999998909, 72.00900000000000034, 2.200000000000000178 ) ) ;
#997 = DIRECTION ( 'NONE',  ( -0.000000000000000000, -0.000000000000000000, -1.000000000000000000 ) ) ;
#998 = ORIENTED_EDGE ( 'NONE', *, *, #117, .F. ) ;
#999 = ORIENTED_EDGE ( 'NONE', *, *, #576, .T. ) ;
#1000 = DIRECTION ( 'NONE',  ( 1.000000000000000000, 0.000000000000000000, 0.000000000000000000 ) ) ;
#1001 = LINE ( 'NONE', #995, #209 ) ;
#1002 = CONICAL_SURFACE ( 'NONE', #328, 0.5000000000000004441, 0.7853981633974439491 ) ;
#1003 = ADVANCED_FACE ( 'NONE', ( #567 ), #370, .T. ) ;
#1004 = CARTESIAN_POINT ( 'NONE',  ( 73.88700000000000045, 0.000000000000000000, 2.200000000000000178 ) ) ;
#1005 = VERTEX_POINT ( 'NONE', #179 ) ;
#1006 = CARTESIAN_POINT ( 'NONE',  ( 80.00000001999998744, 80.00000002000000165, -1.649999999999999911 ) ) ;
#1007 = EDGE_LOOP ( 'NONE', ( #1089, #87, #1061, #1178 ) ) ;
#1008 = CARTESIAN_POINT ( 'NONE',  ( 82.95799999999998420, 82.19300000000001205, 2.200000000000000178 ) ) ;
#1009 = VECTOR ( 'NONE', #786, 1000.000000000000000 ) ;
#1010 = EDGE_CURVE ( 'NONE', #443, #825, #682, .T. ) ;
#1011 = ORIENTED_EDGE ( 'NONE', *, *, #180, .T. ) ;
#1012 = AXIS2_PLACEMENT_3D ( 'NONE', #1118, #812, #241 ) ;
#1013 = VECTOR ( 'NONE', #103, 1000.000000000000000 ) ;
#1014 = CARTESIAN_POINT ( 'NONE',  ( 86.35999999999999943, 71.88199999999999079, 0.000000000000000000 ) ) ;
#1015 = UNCERTAINTY_MEASURE_WITH_UNIT (LENGTH_MEASURE( 1.000000000000000082E-05 ), #1205, 'distance_accuracy_value', 'NONE');
#1016 = ORIENTED_EDGE ( 'NONE', *, *, #39, .T. ) ;
#1017 = DIRECTION ( 'NONE',  ( -1.000000000000000000, 0.000000000000000000, 0.000000000000000000 ) ) ;
#1018 = LINE ( 'NONE', #527, #679 ) ;
#1019 = DIRECTION ( 'NONE',  ( -1.000000000000000000, 0.000000000000000000, 0.000000000000000000 ) ) ;
#1020 = DIRECTION ( 'NONE',  ( 0.000000000000000000, 0.000000000000000000, 1.000000000000000000 ) ) ;
#1021 = EDGE_CURVE ( 'NONE', #25, #757, #1210, .T. ) ;
#1022 = DIRECTION ( 'NONE',  ( 0.000000000000000000, -0.000000000000000000, -1.000000000000000000 ) ) ;
#1023 = SURFACE_SIDE_STYLE ('',( #38 ) ) ;
#1024 = FACE_OUTER_BOUND ( 'NONE', #785, .T. ) ;
#1025 = CARTESIAN_POINT ( 'NONE',  ( 51.37466666666635717, 97.59633333333363225, -23.48733333333317930 ) ) ;
#1026 = AXIS2_PLACEMENT_3D ( 'NONE', #101, #685, #793 ) ;
#1027 = ORIENTED_EDGE ( 'NONE', *, *, #211, .T. ) ;
#1028 = PLANE ( 'NONE',  #121 ) ;
#1029 = VECTOR ( 'NONE', #89, 1000.000000000000114 ) ;
#1030 = ADVANCED_FACE ( 'NONE', ( #598, #775, #1186 ), #865, .F. ) ;
#1031 = VECTOR ( 'NONE', #794, 1000.000000000000000 ) ;
#1032 = LINE ( 'NONE', #163, #1228 ) ;
#1033 = CARTESIAN_POINT ( 'NONE',  ( 75.56499999999999773, 70.23100000000000875, 3.614213562373096433 ) ) ;
#1034 = ORIENTED_EDGE ( 'NONE', *, *, #1021, .T. ) ;
#1035 = ORIENTED_EDGE ( 'NONE', *, *, #39, .F. ) ;
#1036 = DIRECTION ( 'NONE',  ( 0.000000000000000000, 1.000000000000000000, 0.000000000000000000 ) ) ;
#1037 = CARTESIAN_POINT ( 'NONE',  ( 86.13000000000000966, 71.88199999999999079, 2.099999999999999201 ) ) ;
#1038 = DIRECTION ( 'NONE',  ( -1.000000000000000000, 0.000000000000000000, 0.000000000000000000 ) ) ;
#1039 = EDGE_CURVE ( 'NONE', #806, #585, #307, .T. ) ;
#1040 = AXIS2_PLACEMENT_3D ( 'NONE', #140, #1214, #157 ) ;
#1041 = EDGE_LOOP ( 'NONE', ( #460, #1231, #491, #218 ) ) ;
#1042 = CARTESIAN_POINT ( 'NONE',  ( 73.78699999999999193, 72.00900000000000034, 2.200000000000000178 ) ) ;
#1043 = CARTESIAN_POINT ( 'NONE',  ( 86.13000000000000966, 71.65199999999998681, 2.200000000000000178 ) ) ;
#1044 = CARTESIAN_POINT ( 'NONE',  ( 86.26000000000000512, 71.65199999999998681, 2.200000000000000178 ) ) ;
#1045 = EDGE_CURVE ( 'NONE', #1191, #1201, #985, .T. ) ;
#1046 = ORIENTED_EDGE ( 'NONE', *, *, #515, .F. ) ;
#1047 = DIRECTION ( 'NONE',  ( -1.000000000000000000, 0.000000000000000000, 0.000000000000000000 ) ) ;
#1048 = CIRCLE ( 'NONE', #543, 0.2299999999999940981 ) ;
#1049 = CARTESIAN_POINT ( 'NONE',  ( 86.13000000000000966, 69.08799999999999386, 2.200000000000000178 ) ) ;
#1050 = CIRCLE ( 'NONE', #187, 1.310000000000005604 ) ;
#1051 = VECTOR ( 'NONE', #523, 999.9999999999998863 ) ;
#1052 = ORIENTED_EDGE ( 'NONE', *, *, #993, .F. ) ;
#1053 = CARTESIAN_POINT ( 'NONE',  ( 82.95799999999998420, 82.19300000000001205, 2.200000000000000178 ) ) ;
#1054 = DIRECTION ( 'NONE',  ( -1.000000000000000000, 0.000000000000000000, 0.000000000000000000 ) ) ;
#1055 = AXIS2_PLACEMENT_3D ( 'NONE', #252, #731, #144 ) ;
#1056 = ORIENTED_EDGE ( 'NONE', *, *, #1146, .F. ) ;
#1057 = VERTEX_POINT ( 'NONE', #1179 ) ;
#1058 = DIRECTION ( 'NONE',  ( 0.000000000000000000, 0.000000000000000000, 1.000000000000000000 ) ) ;
#1059 = DIRECTION ( 'NONE',  ( 0.000000000000000000, -1.000000000000000000, 0.000000000000000000 ) ) ;
#1060 = EDGE_LOOP ( 'NONE', ( #978, #122, #398, #390 ) ) ;
#1061 = ORIENTED_EDGE ( 'NONE', *, *, #1139, .T. ) ;
#1062 = FACE_OUTER_BOUND ( 'NONE', #843, .T. ) ;
#1063 = LINE ( 'NONE', #389, #721 ) ;
#1064 = VERTEX_POINT ( 'NONE', #1253 ) ;
#1065 = CONICAL_SURFACE ( 'NONE', #1130, 0.5000000000000004441, 0.7853981633974439491 ) ;
#1066 = FACE_OUTER_BOUND ( 'NONE', #967, .T. ) ;
#1067 = LINE ( 'NONE', #193, #966 ) ;
#1068 = MECHANICAL_DESIGN_GEOMETRIC_PRESENTATION_REPRESENTATION (  '', ( #781 ), #32 ) ;
#1069 = AXIS2_PLACEMENT_3D ( 'NONE', #996, #972, #119 ) ;
#1070 = ORIENTED_EDGE ( 'NONE', *, *, #408, .F. ) ;
#1071 = EDGE_LOOP ( 'NONE', ( #70, #184, #362, #791 ) ) ;
#1072 = CARTESIAN_POINT ( 'NONE',  ( 76.96199999999998909, 72.00900000000000034, 2.200000000000000178 ) ) ;
#1073 = VERTEX_POINT ( 'NONE', #485 ) ;
#1074 = DIRECTION ( 'NONE',  ( -0.000000000000000000, -0.000000000000000000, -1.000000000000000000 ) ) ;
#1075 = DIRECTION ( 'NONE',  ( -1.000000000000000000, 0.000000000000000000, 0.000000000000000000 ) ) ;
#1076 = CARTESIAN_POINT ( 'NONE',  ( 83.05799999999999272, 71.88199999999999079, 2.200000000000000178 ) ) ;
#1077 = ORIENTED_EDGE ( 'NONE', *, *, #219, .T. ) ;
#1078 = EDGE_CURVE ( 'NONE', #764, #1248, #969, .T. ) ;
#1079 = ORIENTED_EDGE ( 'NONE', *, *, #1259, .T. ) ;
#1080 = ORIENTED_EDGE ( 'NONE', *, *, #656, .F. ) ;
#1081 = VECTOR ( 'NONE', #923, 1000.000000000000000 ) ;
#1082 = DIRECTION ( 'NONE',  ( -0.000000000000000000, 0.000000000000000000, -1.000000000000000000 ) ) ;
#1083 = ORIENTED_EDGE ( 'NONE', *, *, #379, .F. ) ;
#1084 = DIRECTION ( 'NONE',  ( 0.000000000000000000, 0.000000000000000000, 1.000000000000000000 ) ) ;
#1085 = PLANE ( 'NONE',  #81 ) ;
#1086 = LINE ( 'NONE', #223, #845 ) ;
#1087 = EDGE_CURVE ( 'NONE', #1251, #878, #213, .T. ) ;
#1088 = ORIENTED_EDGE ( 'NONE', *, *, #191, .F. ) ;
#1089 = ORIENTED_EDGE ( 'NONE', *, *, #702, .F. ) ;
#1090 = DIRECTION ( 'NONE',  ( -0.000000000000000000, 0.000000000000000000, -1.000000000000000000 ) ) ;
#1091 = VECTOR ( 'NONE', #125, 1000.000000000000000 ) ;
#1092 = DIRECTION ( 'NONE',  ( -0.000000000000000000, -0.000000000000000000, -1.000000000000000000 ) ) ;
#1093 = FACE_OUTER_BOUND ( 'NONE', #1041, .T. ) ;
#1094 = CARTESIAN_POINT ( 'NONE',  ( 74.01699999999998170, 71.77900000000001057, 0.000000000000000000 ) ) ;
#1095 = CIRCLE ( 'NONE', #621, 1.409999999999994591 ) ;
#1096 = CARTESIAN_POINT ( 'NONE',  ( 82.82800000000000296, 82.19300000000001205, 2.099999999999999201 ) ) ;
#1097 = ORIENTED_EDGE ( 'NONE', *, *, #672, .T. ) ;
#1098 = EDGE_CURVE ( 'NONE', #824, #950, #290, .T. ) ;
#1099 = DIRECTION ( 'NONE',  ( -1.000000000000000000, 0.000000000000000000, 0.000000000000000000 ) ) ;
#1100 = CYLINDRICAL_SURFACE ( 'NONE', #230, 0.2299999999999940981 ) ;
#1101 = CARTESIAN_POINT ( 'NONE',  ( 78.59000001999999085, 80.00000002000000165, -1.549999999999998268 ) ) ;
#1102 = CARTESIAN_POINT ( 'NONE',  ( 75.56499999999999773, 70.23100000000000875, 2.099999999999995204 ) ) ;
#1103 = LINE ( 'NONE', #918, #354 ) ;
#1104 = EDGE_CURVE ( 'NONE', #1242, #198, #607, .T. ) ;
#1105 = ORIENTED_EDGE ( 'NONE', *, *, #627, .F. ) ;
#1106 = AXIS2_PLACEMENT_3D ( 'NONE', #377, #269, #575 ) ;
#1107 = DIRECTION ( 'NONE',  ( 0.000000000000000000, -1.000000000000000000, 0.000000000000000000 ) ) ;
#1108 = DIRECTION ( 'NONE',  ( 0.000000000000000000, 0.000000000000000000, -1.000000000000000000 ) ) ;
#1109 = CARTESIAN_POINT ( 'NONE',  ( 86.13000000000000966, 69.08799999999999386, 2.099999999999999201 ) ) ;
#1110 = DIRECTION ( 'NONE',  ( 1.000000000000000000, 0.000000000000000000, 0.000000000000000000 ) ) ;
#1111 = AXIS2_PLACEMENT_3D ( 'NONE', #675, #318, #705 ) ;
#1112 = ADVANCED_FACE ( 'NONE', ( #82 ), #281, .F. ) ;
#1113 = AXIS2_PLACEMENT_3D ( 'NONE', #463, #74, #858 ) ;
#1114 = AXIS2_PLACEMENT_3D ( 'NONE', #693, #788, #222 ) ;
#1115 = FACE_OUTER_BOUND ( 'NONE', #1147, .T. ) ;
#1116 = DIRECTION ( 'NONE',  ( 0.7071067811865536790, 0.000000000000000000, 0.7071067811865414665 ) ) ;
#1117 = ADVANCED_FACE ( 'NONE', ( #299 ), #880, .T. ) ;
#1118 = CARTESIAN_POINT ( 'NONE',  ( 74.01699999999998170, 69.31799999999998363, 2.099999999999999201 ) ) ;
#1119 = CARTESIAN_POINT ( 'NONE',  ( 86.35999999999999943, 69.31799999999998363, 2.099999999999999201 ) ) ;
#1120 = CARTESIAN_POINT ( 'NONE',  ( 80.00000001999998744, 80.00000002000000165, 0.000000000000000000 ) ) ;
#1121 = EDGE_CURVE ( 'NONE', #870, #1142, #947, .T. ) ;
#1122 = ORIENTED_EDGE ( 'NONE', *, *, #191, .T. ) ;
#1123 = CARTESIAN_POINT ( 'NONE',  ( 84.45499999999999829, 70.10399999999999920, 0.000000000000000000 ) ) ;
#1124 = DIRECTION ( 'NONE',  ( 0.000000000000000000, -1.000000000000000000, 0.000000000000000000 ) ) ;
#1125 = CARTESIAN_POINT ( 'NONE',  ( 75.56499999999999773, 70.23100000000000875, 2.200000000000000178 ) ) ;
#1126 = ORIENTED_EDGE ( 'NONE', *, *, #73, .F. ) ;
#1127 = CARTESIAN_POINT ( 'NONE',  ( 74.01699999999998170, 69.31799999999998363, 2.200000000000000178 ) ) ;
#1128 = ORIENTED_EDGE ( 'NONE', *, *, #347, .F. ) ;
#1129 = DIRECTION ( 'NONE',  ( 0.000000000000000000, -1.000000000000000000, 0.000000000000000000 ) ) ;
#1130 = AXIS2_PLACEMENT_3D ( 'NONE', #427, #1020, #1110 ) ;
#1131 = CIRCLE ( 'NONE', #188, 0.2299999999999940981 ) ;
#1132 = CARTESIAN_POINT ( 'NONE',  ( 78.59000001999999085, 80.00000002000000165, -1.649999999999999911 ) ) ;
#1133 = FACE_OUTER_BOUND ( 'NONE', #1159, .T. ) ;
#1134 = APPLICATION_CONTEXT ( 'automotive_design' ) ;
#1135 = ORIENTED_EDGE ( 'NONE', *, *, #330, .T. ) ;
#1136 = CARTESIAN_POINT ( 'NONE',  ( 82.82800000000000296, 82.42300000000001603, 2.200000000000000178 ) ) ;
#1137 = LINE ( 'NONE', #446, #1257 ) ;
#1138 = CIRCLE ( 'NONE', #512, 0.5000000000000004441 ) ;
#1139 = EDGE_CURVE ( 'NONE', #1142, #143, #872, .T. ) ;
#1140 = CARTESIAN_POINT ( 'NONE',  ( 74.01699999999998170, 69.08799999999999386, 2.099999999999999201 ) ) ;
#1141 = ADVANCED_BREP_SHAPE_REPRESENTATION ( '驱动电流传导块', ( #681, #1233 ), #821 ) ;
#1142 = VERTEX_POINT ( 'NONE', #1164 ) ;
#1143 = DIRECTION ( 'NONE',  ( 0.000000000000000000, 0.000000000000000000, -1.000000000000000000 ) ) ;
#1144 = PLANE ( 'NONE',  #560 ) ;
#1145 = ORIENTED_EDGE ( 'NONE', *, *, #272, .T. ) ;
#1146 = EDGE_CURVE ( 'NONE', #150, #403, #671, .T. ) ;
#1147 = EDGE_LOOP ( 'NONE', ( #590, #123, #356, #94 ) ) ;
#1148 = CARTESIAN_POINT ( 'NONE',  ( 0.000000000000000000, 71.90900000000000603, 2.200000000000000178 ) ) ;
#1149 = AXIS2_PLACEMENT_3D ( 'NONE', #849, #353, #175 ) ;
#1150 = DIRECTION ( 'NONE',  ( 0.000000000000000000, -0.000000000000000000, -1.000000000000000000 ) ) ;
#1151 = VERTEX_POINT ( 'NONE', #15 ) ;
#1152 = ORIENTED_EDGE ( 'NONE', *, *, #922, .T. ) ;
#1153 = ADVANCED_FACE ( 'NONE', ( #212 ), #407, .F. ) ;
#1154 = ORIENTED_EDGE ( 'NONE', *, *, #1160, .T. ) ;
#1155 = CARTESIAN_POINT ( 'NONE',  ( 0.000000000000000000, 0.000000000000000000, 0.000000000000000000 ) ) ;
#1156 = FACE_OUTER_BOUND ( 'NONE', #635, .T. ) ;
#1157 = DIRECTION ( 'NONE',  ( 0.000000000000000000, 0.000000000000000000, -1.000000000000000000 ) ) ;
#1158 = ORIENTED_EDGE ( 'NONE', *, *, #735, .F. ) ;
#1159 = EDGE_LOOP ( 'NONE', ( #761, #753, #321, #790 ) ) ;
#1160 = EDGE_CURVE ( 'NONE', #300, #1151, #1063, .T. ) ;
#1161 = AXIS2_PLACEMENT_3D ( 'NONE', #1148, #750, #1246 ) ;
#1162 = ORIENTED_EDGE ( 'NONE', *, *, #717, .F. ) ;
#1163 = CARTESIAN_POINT ( 'NONE',  ( 82.82800000000000296, 82.19300000000001205, 2.200000000000000178 ) ) ;
#1164 = CARTESIAN_POINT ( 'NONE',  ( 81.31000001999998972, 80.00000002000000165, -1.649999999999999911 ) ) ;
#1165 = ORIENTED_EDGE ( 'NONE', *, *, #23, .F. ) ;
#1166 = DIRECTION ( 'NONE',  ( 0.000000000000000000, 0.000000000000000000, -1.000000000000000000 ) ) ;
#1167 = LINE ( 'NONE', #509, #948 ) ;
#1168 = VERTEX_POINT ( 'NONE', #977 ) ;
#1169 = ORIENTED_EDGE ( 'NONE', *, *, #766, .T. ) ;
#1170 = AXIS2_PLACEMENT_3D ( 'NONE', #746, #248, #934 ) ;
#1171 = DIRECTION ( 'NONE',  ( 0.000000000000000000, 0.7071067811865536790, 0.7071067811865414665 ) ) ;
#1172 = ORIENTED_EDGE ( 'NONE', *, *, #1160, .F. ) ;
#1173 = DIRECTION ( 'NONE',  ( -1.000000000000000000, 0.000000000000000000, 0.000000000000000000 ) ) ;
#1174 = DIRECTION ( 'NONE',  ( 0.000000000000000000, 0.000000000000000000, -1.000000000000000000 ) ) ;
#1175 = LINE ( 'NONE', #687, #505 ) ;
#1176 = PRODUCT_DEFINITION_FORMATION_WITH_SPECIFIED_SOURCE ( '任何', '', #910, .NOT_KNOWN. ) ;
#1177 = MECHANICAL_DESIGN_GEOMETRIC_PRESENTATION_REPRESENTATION (  '', ( #458 ), #401 ) ;
#1178 = ORIENTED_EDGE ( 'NONE', *, *, #256, .F. ) ;
#1179 = CARTESIAN_POINT ( 'NONE',  ( 86.35999999999999943, 69.31799999999998363, 0.000000000000000000 ) ) ;
#1180 = EDGE_CURVE ( 'NONE', #526, #387, #400, .T. ) ;
#1181 = DIRECTION ( 'NONE',  ( -1.000000000000000000, 0.000000000000000000, 0.000000000000000000 ) ) ;
#1182 = PLANE ( 'NONE',  #822 ) ;
#1183 = CYLINDRICAL_SURFACE ( 'NONE', #945, 1.409999999999994591 ) ;
#1184 = CARTESIAN_POINT ( 'NONE',  ( 77.19199999999997885, 82.19300000000001205, 2.200000000000000178 ) ) ;
#1185 = CIRCLE ( 'NONE', #628, 0.1299999999999912337 ) ;
#1186 = FACE_OUTER_BOUND ( 'NONE', #651, .T. ) ;
#1187 = CYLINDRICAL_SURFACE ( 'NONE', #395, 0.5000000000000004441 ) ;
#1188 = FACE_OUTER_BOUND ( 'NONE', #285, .T. ) ;
#1189 = CARTESIAN_POINT ( 'NONE',  ( 83.95499999999999829, 70.10399999999999920, 2.099999999999995204 ) ) ;
#1190 = EDGE_CURVE ( 'NONE', #1142, #870, #1050, .T. ) ;
#1191 = VERTEX_POINT ( 'NONE', #1109 ) ;
#1192 = CARTESIAN_POINT ( 'NONE',  ( 82.95799999999998420, 0.000000000000000000, 2.200000000000000178 ) ) ;
#1193 = AXIS2_PLACEMENT_3D ( 'NONE', #1255, #1166, #1181 ) ;
#1194 = LINE ( 'NONE', #586, #352 ) ;
#1195 = DIRECTION ( 'NONE',  ( -0.7071067811865444641, 8.659560562354895880E-17, 0.7071067811865505703 ) ) ;
#1196 = DIRECTION ( 'NONE',  ( 0.000000000000000000, 0.000000000000000000, 1.000000000000000000 ) ) ;
#1197 = VECTOR ( 'NONE', #37, 1000.000000000000114 ) ;
#1198 = VECTOR ( 'NONE', #778, 1000.000000000000114 ) ;
#1199 = ORIENTED_EDGE ( 'NONE', *, *, #433, .F. ) ;
#1200 = FILL_AREA_STYLE_COLOUR ( '', #561 ) ;
#1201 = VERTEX_POINT ( 'NONE', #617 ) ;
#1202 = DIRECTION ( 'NONE',  ( 0.000000000000000000, 0.000000000000000000, -1.000000000000000000 ) ) ;
#1203 = PLANE ( 'NONE',  #580 ) ;
#1204 = ORIENTED_EDGE ( 'NONE', *, *, #1010, .T. ) ;
#1205 =( LENGTH_UNIT ( ) NAMED_UNIT ( * ) SI_UNIT ( .MILLI., .METRE. ) );
#1206 = AXIS2_PLACEMENT_3D ( 'NONE', #465, #583, #186 ) ;
#1207 = CARTESIAN_POINT ( 'NONE',  ( 74.01699999999998170, 72.00900000000000034, 2.200000000000000178 ) ) ;
#1208 = EDGE_CURVE ( 'NONE', #976, #950, #426, .T. ) ;
#1209 = FACE_OUTER_BOUND ( 'NONE', #1060, .T. ) ;
#1210 = CIRCLE ( 'NONE', #654, 0.1299999999999912337 ) ;
#1211 = AXIS2_PLACEMENT_3D ( 'NONE', #815, #905, #827 ) ;
#1212 = AXIS2_PLACEMENT_3D ( 'NONE', #1094, #997, #677 ) ;
#1213 = DIRECTION ( 'NONE',  ( -1.000000000000000000, 0.000000000000000000, 0.000000000000000000 ) ) ;
#1214 = DIRECTION ( 'NONE',  ( -1.000000000000000000, 0.000000000000000000, 0.000000000000000000 ) ) ;
#1215 = CYLINDRICAL_SURFACE ( 'NONE', #885, 0.5000000000000004441 ) ;
#1216 = EDGE_CURVE ( 'NONE', #1057, #489, #26, .T. ) ;
#1217 = VECTOR ( 'NONE', #933, 1000.000000000000000 ) ;
#1218 = ORIENTED_EDGE ( 'NONE', *, *, #911, .F. ) ;
#1219 = CARTESIAN_POINT ( 'NONE',  ( 84.95499999999999829, 70.10399999999999920, 2.099999999999995204 ) ) ;
#1220 =( LENGTH_UNIT ( ) NAMED_UNIT ( * ) SI_UNIT ( .MILLI., .METRE. ) );
#1221 = CARTESIAN_POINT ( 'NONE',  ( 83.05799999999999272, 82.19300000000001205, 0.000000000000000000 ) ) ;
#1222 = CARTESIAN_POINT ( 'NONE',  ( 80.00000001999998744, 80.00000002000000165, -1.649999999999999911 ) ) ;
#1223 = EDGE_CURVE ( 'NONE', #869, #142, #844, .T. ) ;
#1224 = EDGE_LOOP ( 'NONE', ( #641, #892, #413, #1254 ) ) ;
#1225 = DIRECTION ( 'NONE',  ( 0.000000000000000000, 0.000000000000000000, 1.000000000000000000 ) ) ;
#1226 = DIRECTION ( 'NONE',  ( -0.7071067811865536790, 0.000000000000000000, -0.7071067811865414665 ) ) ;
#1227 = FACE_OUTER_BOUND ( 'NONE', #196, .T. ) ;
#1228 = VECTOR ( 'NONE', #558, 1000.000000000000000 ) ;
#1229 = CONICAL_SURFACE ( 'NONE', #678, 0.1299999999999912337, 0.7853981633974865817 ) ;
#1230 = EDGE_CURVE ( 'NONE', #449, #1064, #631, .T. ) ;
#1231 = ORIENTED_EDGE ( 'NONE', *, *, #664, .T. ) ;
#1232 = CARTESIAN_POINT ( 'NONE',  ( 84.95499999999999829, 70.10399999999999920, 0.000000000000000000 ) ) ;
#1233 = AXIS2_PLACEMENT_3D ( 'NONE', #1155, #851, #461 ) ;
#1234 = AXIS2_PLACEMENT_3D ( 'NONE', #93, #795, #310 ) ;
#1235 = LINE ( 'NONE', #359, #937 ) ;
#1236 = DIRECTION ( 'NONE',  ( -1.000000000000000000, 0.000000000000000000, 0.000000000000000000 ) ) ;
#1237 = EDGE_LOOP ( 'NONE', ( #1128, #469, #859, #511 ) ) ;
#1238 = DIRECTION ( 'NONE',  ( 0.000000000000000000, 0.7071067811865536790, -0.7071067811865414665 ) ) ;
#1239 = CARTESIAN_POINT ( 'NONE',  ( 75.06499999999999773, 70.23100000000000875, 0.000000000000000000 ) ) ;
#1240 = ORIENTED_EDGE ( 'NONE', *, *, #201, .F. ) ;
#1241 = VECTOR ( 'NONE', #658, 1000.000000000000000 ) ;
#1242 = VERTEX_POINT ( 'NONE', #337 ) ;
#1243 = LINE ( 'NONE', #369, #327 ) ;
#1244 = CARTESIAN_POINT ( 'NONE',  ( 76.06499999999999773, 70.23100000000000875, 3.614213562373096433 ) ) ;
#1245 = VERTEX_POINT ( 'NONE', #624 ) ;
#1246 = DIRECTION ( 'NONE',  ( -1.000000000000000000, 0.000000000000000000, 0.000000000000000000 ) ) ;
#1247 = DIRECTION ( 'NONE',  ( -0.000000000000000000, 0.000000000000000000, -1.000000000000000000 ) ) ;
#1248 = VERTEX_POINT ( 'NONE', #715 ) ;
#1249 = EDGE_CURVE ( 'NONE', #605, #806, #1018, .T. ) ;
#1250 = EDGE_CURVE ( 'NONE', #521, #764, #504, .T. ) ;
#1251 = VERTEX_POINT ( 'NONE', #818 ) ;
#1252 = PLANE ( 'NONE',  #648 ) ;
#1253 = CARTESIAN_POINT ( 'NONE',  ( 82.82800000000000296, 82.42300000000001603, 2.099999999999999201 ) ) ;
#1254 = ORIENTED_EDGE ( 'NONE', *, *, #145, .T. ) ;
#1255 = CARTESIAN_POINT ( 'NONE',  ( 86.13000000000000966, 69.31799999999998363, 2.200000000000000178 ) ) ;
#1256 = ORIENTED_EDGE ( 'NONE', *, *, #1087, .T. ) ;
#1257 = VECTOR ( 'NONE', #1238, 1000.000000000000000 ) ;
#1258 = ORIENTED_EDGE ( 'NONE', *, *, #473, .F. ) ;
#1259 = EDGE_CURVE ( 'NONE', #403, #573, #1103, .T. ) ;
#1260 = CARTESIAN_POINT ( 'NONE',  ( 83.05799999999999272, 82.19300000000001205, 2.200000000000000178 ) ) ;
#1261 = ORIENTED_EDGE ( 'NONE', *, *, #1098, .F. ) ;
#1262 = DIRECTION ( 'NONE',  ( -1.000000000000000000, 0.000000000000000000, 0.000000000000000000 ) ) ;
#1263 = FACE_OUTER_BOUND ( 'NONE', #291, .T. ) ;
#1264 = DIRECTION ( 'NONE',  ( -1.000000000000000000, 0.000000000000000000, 0.000000000000000000 ) ) ;
ENDSEC;
END-ISO-10303-21;
